<svg width="440" height="254" viewBox="0 0 440 254" fill="none" xmlns="http://www.w3.org/2000/svg">
<g id="working 1" clip-path="url(#clip0_4_1732)">
<g id="layer4">
<g id="layer4-4">
<path id="luz-3" d="M10.5397 69.8805H12.3706C12.5074 69.8805 12.6175 69.9747 12.6175 70.0917V71.5091C12.6175 71.6261 12.5074 71.7203 12.3706 71.7203H10.5397C10.4029 71.7203 10.2927 71.6262 10.2927 71.5091V70.0917C10.2927 69.9747 10.4029 69.8805 10.5397 69.8805Z" fill="#D50000"/>
<path id="luz-1" d="M249.7 49.4657H252.245C252.382 49.4657 252.492 49.5599 252.492 49.6769V52.3862C252.492 52.5033 252.382 52.5975 252.245 52.5975H249.7C249.563 52.5975 249.453 52.5033 249.453 52.3862V49.6769C249.453 49.5599 249.563 49.4657 249.7 49.4657Z" fill="#D50000"/>
<path id="luz-4" d="M66.3771 81.9309H68.284C68.4208 81.9309 68.5309 82.0251 68.5309 82.1422V83.6197C68.5309 83.7367 68.4208 83.8309 68.284 83.8309H66.3771C66.2403 83.8309 66.1301 83.7367 66.1301 83.6197V82.1422C66.1301 82.0251 66.2403 81.9309 66.3771 81.9309Z" fill="#D50000"/>
<path id="luz-2" d="M81.5116 30.2472H83.6473C83.7841 30.2472 83.8942 30.3414 83.8942 30.4584V33.0854C83.8942 33.2024 83.7841 33.2966 83.6473 33.2966H81.5116C81.3748 33.2966 81.2646 33.2024 81.2646 33.0854V30.4584C81.2646 30.3414 81.3748 30.2472 81.5116 30.2472Z" fill="#D50000"/>
<path id="luz-5" d="M369.672 209.084C369.808 209.077 369.961 209.098 370.005 209.235C370.034 209.523 370.063 210.033 370.063 210.033C370.063 210.033 370.114 210.526 369.902 210.659C369.823 210.668 369.27 210.679 369.27 210.679L369.158 209.097C369.158 209.097 369.587 209.093 369.672 209.084Z" fill="#D50000"/>
</g>
<path id="rect2376" d="M252.794 51.4314H249.354C249.218 51.4314 249.107 51.526 249.107 51.6426V52.325C249.107 52.4417 249.218 52.5362 249.354 52.5362H252.794C252.93 52.5362 253.04 52.4417 253.04 52.325V51.6426C253.04 51.526 252.93 51.4314 252.794 51.4314Z" fill="black"/>
<path id="rect2380" d="M68.5966 81.4075H67.7316C67.5952 81.4075 67.4846 81.5021 67.4846 81.6187V84.0468C67.4846 84.1634 67.5952 84.258 67.7316 84.258H68.5966C68.733 84.258 68.8436 84.1634 68.8436 84.0468V81.6187C68.8436 81.5021 68.733 81.4075 68.5966 81.4075Z" fill="black"/>
<path id="rect2378" d="M84.5455 32.4961H80.6529C80.5166 32.4961 80.406 32.5907 80.406 32.7073V33.4366C80.406 33.5532 80.5166 33.6478 80.6529 33.6478H84.5455C84.6818 33.6478 84.7924 33.5532 84.7924 33.4366V32.7073C84.7924 32.5907 84.6818 32.4961 84.5455 32.4961Z" fill="black"/>
<path id="path1669" d="M341.799 230.753L339.887 230.455L339.865 231.013L341.799 231.427V230.753Z" fill="#7E7E7E"/>
<path id="rect4192" d="M244.935 93.1841H439.128C439.153 93.1841 439.174 93.2048 439.174 93.2305V129.566C439.174 129.592 439.153 129.613 439.128 129.613H244.935C244.909 129.613 244.888 129.592 244.888 129.566V93.2305C244.888 93.2048 244.909 93.1841 244.935 93.1841Z" fill="#5C848D"/>
<g id="credit_card">
<g id="g3789">
<path id="path3787" d="M369.636 15.7516C369.636 16.612 368.938 17.3094 368.078 17.3094H353.973C353.113 17.3094 352.416 16.612 352.416 15.7516V6.81278C352.416 5.95244 353.113 5.255 353.973 5.255H368.078C368.938 5.255 369.636 5.95244 369.636 6.81278V15.7516ZM368.947 6.8393C368.947 6.34472 368.546 5.94383 368.051 5.94383H353.999C353.505 5.94383 353.104 6.34472 353.104 6.8393V15.7251C353.104 16.2197 353.505 16.6206 353.999 16.6206H368.051C368.546 16.6206 368.947 16.2197 368.947 15.7251V6.8393Z" fill="#999DA6"/>
</g>
<g id="g3793">
<path id="path3791" d="M369.636 10.0768H352.415V7.32153H369.636V10.0768ZM353.104 9.388H368.947V8.01036H353.104V9.388Z" fill="#999DA6"/>
</g>
<g id="g3797">
<path id="path3795" d="M366.881 13.8653H357.582V11.11H366.881V13.8653ZM358.27 13.1765H366.192V11.7988H358.27V13.1765Z" fill="#999DA6"/>
</g>
</g>
<path id="bag" d="M298.343 41.254C298.343 40.3936 297.645 39.6962 296.785 39.6962H295.347C294.356 36.7198 292.443 34.6599 292.334 34.5875C292.219 34.5104 292.068 34.5104 291.952 34.5875C290.169 35.7768 289.269 37.8749 288.816 39.6962H287.502C286.642 39.6962 285.944 40.3936 285.944 41.254L285.256 50.1928C285.256 51.0532 285.953 51.7506 286.813 51.7506H297.474C298.334 51.7506 299.032 51.0532 299.032 50.1928L298.343 41.254ZM292.136 35.2981C292.608 35.6693 293.873 37.4293 294.636 39.6962H289.526C289.94 38.0995 290.709 36.3309 292.136 35.2981ZM297.447 51.0618H286.839C286.345 51.0618 285.944 50.6609 285.944 50.1663L286.633 41.2801C286.633 40.7856 287.033 40.3847 287.528 40.3847H288.662C288.478 41.3049 288.404 42.1012 288.375 42.5992C288.155 42.7504 288.011 43.0036 288.011 43.2905C288.011 43.754 288.386 44.1301 288.85 44.1301C289.314 44.1301 289.69 43.7544 289.69 43.2905C289.69 42.9051 289.429 42.5841 289.075 42.4852C289.112 41.9813 289.192 41.2309 289.367 40.3843H294.848C295.046 41.1024 295.18 41.8601 295.224 42.6316C295.028 42.7852 294.899 43.0215 294.899 43.2901C294.899 43.7537 295.275 44.1298 295.739 44.1298C296.203 44.1298 296.579 43.754 296.579 43.2901C296.579 42.884 296.291 42.5455 295.908 42.4677C295.858 41.7423 295.732 41.0446 295.555 40.3843H296.76C297.255 40.3843 297.655 40.7852 297.655 41.2798L298.344 50.1659C298.343 50.6609 297.942 51.0618 297.447 51.0618Z" fill="#999DA6"/>
<g id="cart">
<path id="path1468" d="M393.745 13.8654C392.793 13.8654 392.022 14.6365 392.022 15.5874C392.022 16.5383 392.793 17.3095 393.745 17.3095C394.696 17.3095 395.467 16.5383 395.467 15.5874C395.467 14.6365 394.696 13.8654 393.745 13.8654ZM393.745 16.2762C393.364 16.2762 393.056 15.9676 393.056 15.5874C393.056 15.2072 393.364 14.8986 393.745 14.8986C394.125 14.8986 394.433 15.2072 394.433 15.5874C394.433 15.9676 394.125 16.2762 393.745 16.2762Z" fill="#999DA6"/>
<path id="path3802" d="M390.841 5.59952C390.838 5.40975 390.838 5.36946 390.836 5.36946C390.835 5.36946 390.833 5.39149 390.831 5.39149C390.831 5.39218 390.83 5.39149 390.831 5.39149L389.61 2.82563C389.609 2.82223 389.607 2.82153 389.605 2.82153C389.593 2.82153 389.577 2.888 389.562 2.888C389.561 2.888 389.559 2.88731 389.556 2.8846C389.528 2.83879 389.491 2.82674 389.447 2.82674C389.395 2.82674 389.334 2.84396 389.266 2.84396H387.199C387.009 2.84396 386.855 2.99826 386.855 3.18837C386.855 3.37849 387.009 3.53278 387.199 3.53278H389.07L390.213 5.69638C390.255 5.78248 390.327 5.9292 390.408 5.96123L392.135 13.1766H402.24L404.077 5.59952H390.841ZM401.699 12.4878H392.68L391.196 6.28835H403.044H403.123L401.699 12.4878Z" fill="#999DA6"/>
<path id="path3804" d="M400.633 13.8654C399.681 13.8654 398.911 14.6365 398.911 15.5874C398.911 16.5383 399.681 17.3095 400.633 17.3095C401.584 17.3095 402.355 16.5383 402.355 15.5874C402.355 14.6365 401.584 13.8654 400.633 13.8654ZM400.633 16.2762C400.252 16.2762 399.944 15.9676 399.944 15.5874C399.944 15.2072 400.252 14.8986 400.633 14.8986C401.013 14.8986 401.322 15.2072 401.322 15.5874C401.322 15.9676 401.013 16.2762 400.633 16.2762Z" fill="#999DA6"/>
</g>
<g id="shield">
<path id="path3810" d="M364.539 35.5502C363.467 35.5502 362.319 35.2953 361.155 34.53C359.991 35.2953 358.735 35.5502 357.663 35.5502C355.52 35.5502 353.793 34.53 353.793 34.53V43.7144C353.793 48.0186 361.022 51.7492 361.026 51.7506C361.029 51.7492 368.258 48.0186 368.258 43.7144V34.53C368.258 34.53 366.682 35.5502 364.539 35.5502ZM367.569 43.7144C367.569 47.058 362.365 50.21 361.021 50.9674C358.934 49.8157 354.482 46.7325 354.482 43.7144V35.6208C355.515 35.919 356.425 36.2393 357.685 36.2393C358.915 36.2393 360.109 35.9366 361.155 35.338C362.2 35.9363 363.286 36.2393 364.518 36.2393C365.777 36.2393 366.881 35.919 367.569 35.6208V43.7144Z" fill="#999DA6"/>
<path id="mark" d="M358.801 41.7489C358.666 41.6142 358.449 41.6142 358.314 41.7489C358.179 41.8835 358.179 42.1012 358.314 42.2359L361.001 44.9223L365.176 40.6247C365.309 40.4883 365.305 40.2703 365.169 40.1377C365.033 40.0048 364.815 40.0086 364.682 40.1449L360.993 43.941L358.801 41.7489Z" fill="#999DA6"/>
</g>
<g id="money">
<path id="path3816" d="M395.467 68.9712C390.711 68.9712 386.856 72.8262 386.856 77.5815C386.856 82.3368 390.711 86.1918 395.467 86.1918C400.222 86.1918 404.077 82.3368 404.077 77.5815C404.077 72.8262 400.222 68.9712 395.467 68.9712ZM395.467 85.5029C391.099 85.5029 387.545 81.9493 387.545 77.5815C387.545 73.2137 391.099 69.66 395.467 69.66C399.835 69.66 403.388 73.2137 403.388 77.5815C403.388 81.9493 399.835 85.5029 395.467 85.5029Z" fill="#999DA6"/>
<path id="path3818" d="M397.808 75.9861C397.808 76.1763 397.962 76.3306 398.153 76.3306C398.343 76.3306 398.497 76.1763 398.497 75.9861C398.497 74.6677 397.313 73.5849 395.811 73.4788V72.7597C395.811 72.5696 395.657 72.4153 395.467 72.4153C395.276 72.4153 395.122 72.5696 395.122 72.7597V73.5009C393.721 73.6872 392.643 74.7287 392.643 75.9861C392.643 75.9958 392.647 76.004 392.648 76.0137C392.628 76.1428 392.681 76.2782 392.797 76.355L395.123 77.8914V81.2594C394.102 81.0896 393.332 80.3505 393.332 79.4671C393.332 79.277 393.178 79.1227 392.987 79.1227C392.797 79.1227 392.643 79.277 392.643 79.4671C392.643 80.7242 393.721 81.7664 395.123 81.9524V83.092C395.123 83.2821 395.277 83.4364 395.467 83.4364C395.658 83.4364 395.812 83.2821 395.812 83.092V81.9744C397.313 81.8683 398.498 80.7852 398.498 79.4671C398.498 79.319 398.404 79.1954 398.272 79.1468L395.812 77.5208V74.168C396.932 74.2668 397.808 75.0442 397.808 75.9861ZM395.122 77.0659L393.337 75.8866C393.393 75.048 394.14 74.3574 395.122 74.1938V77.0659ZM397.796 79.6197C397.688 80.4742 396.856 81.1933 395.811 81.2853V78.2703" fill="#999DA6"/>
</g>
<path id="cartera" d="M299.196 73.4485H297.654V70.6932C297.654 69.7113 296.951 68.9712 296.018 68.9712L285.397 71.038C284.496 71.14 283.533 71.7564 283.533 72.7597V74.8262H283.551C283.544 74.8861 283.533 74.9447 283.533 75.0063V75.515V78.2703V83.9452C283.533 84.8055 284.23 85.5029 285.09 85.5029H299.196C300.056 85.5029 300.753 84.8055 300.753 83.9452V78.2703V75.515V75.0063C300.754 74.146 300.056 73.4485 299.196 73.4485ZM285.427 71.7265L296.045 69.6604C296.58 69.6742 296.965 70.1043 296.965 70.6932V73.4485H285.09C284.769 73.4485 284.47 73.5463 284.222 73.7137V72.7597C284.222 72.178 284.846 71.845 285.427 71.7265ZM284.222 76.2038H300.065V77.5815H284.222V76.2038ZM300.065 83.9186C300.065 84.4132 299.664 84.8141 299.169 84.8141H285.117C284.623 84.8141 284.222 84.4132 284.222 83.9186V78.2703H300.065V83.9186ZM284.222 75.515V75.0328C284.222 74.5382 284.623 74.1374 285.117 74.1374H296.965H297.654H299.169C299.664 74.1374 300.065 74.5382 300.065 75.0328V75.515H284.222Z" fill="#999DA6"/>
<path id="data" d="M335.193 72.4152C335.148 70.5427 331.278 69.0276 326.562 69.0276C321.843 69.0276 318.015 70.5416 317.976 72.4152H317.975V82.7476C317.992 84.617 321.841 86.1304 326.585 86.1304C331.33 86.1304 335.178 84.6167 335.195 82.7476L335.195 72.4152H335.193ZM334.506 75.8917C334.506 77.0289 331.484 78.6153 326.562 78.6153C321.668 78.6153 318.663 77.0272 318.663 75.8883C318.663 75.8793 318.667 75.8687 318.668 75.8594H318.663V75.5081C319.974 76.7273 323.017 77.5818 326.562 77.5818C330.114 77.5818 333.186 76.7263 334.506 75.5046V75.8594H334.5C334.5 75.8701 334.506 75.881 334.506 75.8917ZM318.663 81.0255V80.6742C319.974 81.8934 323.017 82.7479 326.562 82.7479C330.114 82.7479 333.186 81.8924 334.506 80.6708V81.0575C334.506 82.1948 331.484 83.7811 326.562 83.7811C321.668 83.7811 318.663 82.1931 318.663 81.0541C318.663 81.0451 318.667 81.0345 318.668 81.0252L318.663 81.0255ZM326.562 82.0594C321.668 82.0594 318.663 80.4714 318.663 79.3324C318.663 79.3234 318.667 79.3128 318.668 79.3035H318.663V78.9522C319.974 80.1714 323.017 81.0259 326.562 81.0259C330.114 81.0259 333.186 80.1704 334.506 78.9487V79.3355C334.506 80.4731 331.484 82.0594 326.562 82.0594ZM326.562 80.3374C321.668 80.3374 318.663 78.7493 318.663 77.6103C318.663 77.6013 318.667 77.5907 318.668 77.5814H318.663V77.2301C319.974 78.4493 323.017 79.3038 326.562 79.3038C330.114 79.3038 333.186 78.4483 334.506 77.2267V77.6134C334.506 78.751 331.484 80.3374 326.562 80.3374ZM326.562 76.8933C321.668 76.8933 318.663 75.3052 318.663 74.1662C318.663 74.1572 318.667 74.1466 318.668 74.1373H318.663V73.786C319.974 75.0052 323.017 75.8597 326.562 75.8597C330.114 75.8597 333.186 75.0042 334.506 73.7826V74.1693C334.506 75.3069 331.484 76.8933 326.562 76.8933ZM326.562 69.7164C331.42 69.7164 334.446 71.2828 334.501 72.4152C334.502 72.4222 334.503 72.4304 334.504 72.4376L334.505 72.4545C334.493 73.5911 331.474 75.1712 326.562 75.1712C321.681 75.1712 318.68 73.5918 318.664 72.4535L318.665 72.4318C318.665 72.4258 318.667 72.4204 318.668 72.4149C318.716 71.2831 321.724 69.7164 326.562 69.7164ZM334.505 82.7414C334.495 83.8686 331.477 85.4415 326.584 85.4415C321.692 85.4415 318.674 83.869 318.664 82.7414L318.663 82.6766V82.3966C319.974 83.6158 323.017 84.4703 326.562 84.4703C330.114 84.4703 333.186 83.6147 334.506 82.3931V82.6697L334.505 82.7414Z" fill="#999DA6"/>
<g id="search">
<path id="path3826" d="M358.959 68.9712C355.345 68.9712 352.415 71.9011 352.415 75.515C352.415 79.1289 355.345 82.0588 358.959 82.0588C362.573 82.0588 365.503 79.1289 365.503 75.515C365.503 71.9011 362.573 68.9712 358.959 68.9712ZM358.959 81.37C355.731 81.37 353.104 78.7435 353.104 75.515C353.104 72.2865 355.731 69.66 358.959 69.66C362.188 69.66 364.814 72.2865 364.814 75.515C364.814 78.7435 362.188 81.37 358.959 81.37Z" fill="#999DA6"/>
<path id="path3828" d="M369.535 85.6039L364.713 80.7822C364.579 80.6475 364.361 80.6475 364.226 80.7822C364.092 80.9168 364.092 81.1345 364.226 81.2691L369.048 86.0909C369.115 86.1581 369.203 86.1918 369.292 86.1918C369.38 86.1918 369.468 86.1581 369.535 86.0909C369.67 85.9562 369.67 85.7386 369.535 85.6039Z" fill="#999DA6"/>
</g>
<g id="g3836">
<path id="path3832" d="M291.066 103.397L282.921 111.542C282.359 112.104 282.359 113.016 282.921 113.578L288.521 119.178C288.802 119.459 289.171 119.6 289.539 119.6C289.908 119.6 290.276 119.459 290.557 119.178L298.702 111.033L299.72 102.379L291.066 103.397ZM298.046 110.715L290.07 118.691C289.928 118.833 289.74 118.911 289.539 118.911C289.339 118.911 289.15 118.833 289.008 118.691L283.409 113.091C283.116 112.798 283.116 112.322 283.408 112.029L291.384 104.053L298.934 103.165L298.046 110.715Z" fill="#999DA6" stroke="#99A1A6" stroke-width="0.344411"/>
<path id="path3834" d="M294.89 105.66C293.94 105.66 293.168 106.432 293.168 107.382C293.168 108.331 293.94 109.104 294.89 109.104C295.84 109.104 296.612 108.331 296.612 107.382C296.612 106.432 295.839 105.66 294.89 105.66ZM294.89 108.415C294.32 108.415 293.857 107.952 293.857 107.382C293.857 106.811 294.32 106.348 294.89 106.348C295.46 106.348 295.923 106.811 295.923 107.382C295.923 107.952 295.46 108.415 294.89 108.415Z" fill="#999DA6" stroke="#99A1A6" stroke-width="0.344411"/>
</g>
<path id="heart" d="M330.861 103.879C331.147 103.879 331.439 103.912 331.728 103.977C332.769 104.211 333.993 105.182 334.379 106.826C334.84 108.783 334.417 113.011 326.584 119.519C318.752 113.011 318.33 108.783 318.79 106.825C319.176 105.182 320.4 104.21 321.44 103.977C321.73 103.912 322.022 103.879 322.308 103.879C324.521 103.879 326.018 105.836 326.031 105.854L326.582 106.592L327.136 105.855C327.151 105.836 328.648 103.879 330.861 103.879ZM330.861 103.191C328.258 103.191 326.584 105.443 326.584 105.443C326.584 105.443 324.911 103.191 322.308 103.191C321.983 103.191 321.643 103.226 321.29 103.305C318.113 104.018 313.878 110.076 326.584 120.411C339.291 110.076 335.055 104.018 331.879 103.305C331.526 103.226 331.186 103.191 330.861 103.191Z" fill="#999DA6" stroke="#99A1A6" stroke-width="0.344411"/>
<path id="star" d="M361.333 105.207L363.203 109.552C363.311 109.804 363.56 109.968 363.836 109.968H368.195L364.785 113.365C364.611 113.537 364.543 113.789 364.604 114.026L365.881 118.955L361.628 116.194C361.514 116.12 361.383 116.083 361.252 116.083C361.118 116.083 360.985 116.122 360.869 116.2L357.035 118.77L358.466 114.155C358.545 113.899 358.469 113.62 358.271 113.44L354.431 109.968H359.244C359.54 109.968 359.803 109.779 359.897 109.498L361.333 105.207ZM361.252 103.277L359.243 109.279H352.642L357.808 113.951L355.799 120.427L361.252 116.772L366.992 120.498L365.27 113.853L369.862 109.28H363.835L361.252 103.277Z" fill="#999DA6"/>
<path id="path3848" d="M292.088 138.671L294.073 140.1C294.189 140.181 294.327 140.264 294.468 140.264H296.925L297.67 142.299C297.721 142.438 297.814 142.538 297.937 142.62L299.875 143.9L299.137 146.047C299.088 146.191 299.088 146.345 299.137 146.489L299.882 148.679L297.917 150.089C297.799 150.173 297.711 150.276 297.665 150.414L296.913 152.663H294.468C294.327 152.663 294.189 152.723 294.073 152.804L292.088 154.202L290.104 152.8C289.988 152.719 289.85 152.663 289.709 152.663H287.264L286.512 150.405C286.465 150.266 286.376 150.153 286.257 150.068L284.294 148.677L285.04 146.454C285.088 146.311 285.088 146.159 285.04 146.016L284.304 143.827L286.226 142.612C286.356 142.53 286.455 142.448 286.507 142.303L287.252 140.265H289.709C289.85 140.265 289.988 140.182 290.104 140.1L292.088 138.671ZM292.088 137.91L289.709 139.575H286.767L285.858 142.07L283.478 143.554L284.387 146.246L283.478 148.951L285.858 150.623L286.767 153.352H289.709L292.089 155.018L294.468 153.352H297.41L298.319 150.631L300.699 148.932L299.789 146.261L300.699 143.609L298.319 142.066L297.41 139.576H294.468L292.088 137.91Z" fill="#999DA6" stroke="#99A1A6" stroke-width="0.344411"/>
<path id="gift" d="M331.915 39.6962H328.392C330.161 39.213 332.967 38.2324 333.42 36.7859C333.542 36.3991 333.553 35.7967 332.917 35.1231C332.544 34.728 332.109 34.5276 331.624 34.5276C329.37 34.5276 326.897 39.0218 326.623 39.5346L326.609 39.5598L326.596 39.5346C326.321 39.0222 323.848 34.5276 321.594 34.5276C321.11 34.5276 320.675 34.728 320.302 35.1231C319.666 35.7967 319.677 36.3991 319.798 36.7859C320.251 38.2324 323.057 39.213 324.827 39.6962H321.255C320.395 39.6962 319.697 40.3936 319.697 41.2539V43.1403V43.8291V50.1928C319.697 51.0531 320.395 51.7506 321.255 51.7506H324.862H328.307H331.915C332.775 51.7506 333.473 51.0531 333.473 50.1928V43.8291V43.1403V41.2539C333.473 40.3936 332.775 39.6962 331.915 39.6962ZM331.624 35.2143C331.919 35.2143 332.18 35.3394 332.423 35.5966C332.915 36.1177 332.806 36.4649 332.77 36.5789C332.397 37.7713 329.39 38.7477 327.605 39.1899C328.519 37.6717 330.28 35.2143 331.624 35.2143ZM327.618 40.385V43.1403H325.551V40.385H327.618ZM320.447 36.5789C320.412 36.4649 320.303 36.1177 320.794 35.5966C321.038 35.3394 321.299 35.2143 321.594 35.2143C322.937 35.2143 324.699 37.6717 325.612 39.1899C323.828 38.748 320.821 37.7716 320.447 36.5789ZM320.385 41.2805C320.385 40.7859 320.786 40.385 321.281 40.385H324.862V43.1403H320.385V41.2805ZM321.281 51.0618C320.786 51.0618 320.385 50.6609 320.385 50.1663V43.8291H324.862V51.0618H321.281ZM325.551 51.0618V43.8291H327.618V51.0618H325.551ZM332.784 50.1663C332.784 50.6609 332.383 51.0618 331.888 51.0618H328.306V43.8291H332.784V50.1663ZM328.306 43.1403V40.385H331.888C332.383 40.385 332.784 40.7859 332.784 41.2805V43.1403H328.306Z" fill="#999DA6"/>
<g id="g3856">
<path id="path3852" d="M332.095 137.853H323.148H323.14H322.796H321.418C321.418 137.853 321.407 137.853 321.385 137.853C321.132 137.852 319.481 137.975 319.481 141.154L321.074 141.147V153.352L322.418 155.078L324.018 153.371L325.536 155.082L327.048 153.353L328.573 155.06L330.076 153.371L331.586 155.241L333.128 153.696V138.887C333.128 138.126 332.856 137.853 332.095 137.853ZM321.074 140.377L320.211 140.375C320.311 139.483 320.581 139.033 320.816 138.807C320.906 138.721 320.992 138.669 321.074 138.629V140.377ZM332.439 153.411L331.64 154.211L330.613 152.938L330.103 152.306L329.562 152.913L328.573 154.025L327.562 152.894L327.042 152.312L326.53 152.899L325.533 154.04L324.535 152.914L324.033 152.348L323.517 152.899L322.467 154.019L321.763 153.115V140.968V140.953V140.193V138.542H322.796H323.148H332.095C332.285 138.542 332.373 138.564 332.406 138.576C332.418 138.609 332.439 138.697 332.439 138.887V153.411Z" fill="#999DA6" stroke="#99A1A6" stroke-width="0.344411"/>
<path id="path3854" d="M329.27 143.318C329.27 143.509 329.424 143.663 329.615 143.663C329.805 143.663 329.959 143.509 329.959 143.318C329.959 142 328.775 140.917 327.273 140.811V140.092C327.273 139.902 327.119 139.748 326.929 139.748C326.738 139.748 326.584 139.902 326.584 140.092V140.833C325.182 141.019 324.104 142.061 324.104 143.318C324.104 143.328 324.109 143.337 324.11 143.346C324.09 143.475 324.143 143.611 324.259 143.688L326.585 145.224V148.592C325.564 148.422 324.794 147.683 324.794 146.799C324.794 146.609 324.64 146.455 324.449 146.455C324.259 146.455 324.105 146.609 324.105 146.799C324.105 148.056 325.183 149.099 326.585 149.285V150.425C326.585 150.615 326.739 150.769 326.929 150.769C327.119 150.769 327.273 150.615 327.273 150.425V149.307C328.775 149.201 329.959 148.118 329.959 146.8C329.959 146.652 329.865 146.528 329.734 146.479L327.273 144.853V141.501C328.394 141.599 329.27 142.377 329.27 143.318ZM326.584 144.398L324.799 143.219C324.855 142.38 325.602 141.69 326.584 141.526V144.398ZM329.258 147.038C329.149 147.893 328.318 148.525 327.273 148.618V145.775L329.258 147.038Z" fill="#999DA6" stroke="#99A1A6" stroke-width="0.344411"/>
</g>
<g id="more">
<path id="path3858" d="M361.025 137.853C356.269 137.853 352.415 141.708 352.415 146.464C352.415 151.219 356.269 155.074 361.025 155.074C365.781 155.074 369.635 151.219 369.635 146.464C369.635 141.708 365.781 137.853 361.025 137.853ZM361.025 154.385C356.657 154.385 353.104 150.832 353.104 146.464C353.104 142.096 356.657 138.542 361.025 138.542C365.393 138.542 368.947 142.096 368.947 146.464C368.947 150.832 365.393 154.385 361.025 154.385Z" fill="#999DA6"/>
<path id="path3860" d="M364.469 146.119H361.37V143.02C361.37 142.829 361.216 142.675 361.025 142.675C360.835 142.675 360.681 142.829 360.681 143.02V146.119H357.581C357.391 146.119 357.237 146.273 357.237 146.464C357.237 146.654 357.391 146.808 357.581 146.808H360.681V149.908C360.681 150.098 360.835 150.252 361.025 150.252C361.216 150.252 361.37 150.098 361.37 149.908V146.808H364.469C364.66 146.808 364.814 146.654 364.814 146.464C364.814 146.273 364.66 146.119 364.469 146.119Z" fill="#999DA6"/>
</g>
<g id="less">
<path id="path3864" d="M395.466 137.853C390.711 137.853 386.856 141.708 386.856 146.464C386.856 151.219 390.711 155.074 395.466 155.074C400.222 155.074 404.077 151.219 404.077 146.464C404.077 141.708 400.222 137.853 395.466 137.853ZM395.466 154.385C391.098 154.385 387.545 150.832 387.545 146.464C387.545 142.096 391.098 138.542 395.466 138.542C399.834 138.542 403.388 142.096 403.388 146.464C403.388 150.832 399.834 154.385 395.466 154.385Z" fill="#999DA6"/>
<path id="path3866" d="M398.911 146.119H392.022C391.832 146.119 391.678 146.273 391.678 146.464C391.678 146.654 391.832 146.808 392.022 146.808H398.911C399.101 146.808 399.255 146.654 399.255 146.464C399.255 146.273 399.101 146.119 398.911 146.119Z" fill="#999DA6"/>
</g>
<g id="g3874">
<path id="path3870" d="M292.143 172.295C287.387 172.295 283.533 176.15 283.533 180.905C283.533 185.66 287.387 189.515 292.143 189.515C296.899 189.515 300.753 185.66 300.753 180.905C300.753 176.15 296.899 172.295 292.143 172.295ZM292.143 188.826C287.775 188.826 284.222 185.273 284.222 180.905C284.222 176.537 287.775 172.983 292.143 172.983C296.511 172.983 300.064 176.537 300.064 180.905C300.064 185.273 296.511 188.826 292.143 188.826Z" fill="#999DA6" stroke="#99A1A6" stroke-width="0.344411"/>
<path id="path3872" d="M294.822 178.226C294.688 178.091 294.47 178.091 294.335 178.226L292.143 180.418L289.952 178.226C289.817 178.091 289.599 178.091 289.465 178.226C289.33 178.361 289.33 178.578 289.465 178.713L291.656 180.905L289.465 183.097C289.33 183.231 289.33 183.449 289.465 183.584C289.532 183.651 289.62 183.685 289.708 183.685C289.796 183.685 289.884 183.651 289.952 183.584L292.143 181.392L294.335 183.584C294.402 183.651 294.491 183.685 294.579 183.685C294.667 183.685 294.755 183.651 294.822 183.584C294.957 183.449 294.957 183.231 294.822 183.097L292.63 180.905L294.822 178.713C294.957 178.578 294.957 178.36 294.822 178.226Z" fill="#999DA6" stroke="#99A1A6" stroke-width="0.344411"/>
</g>
<g id="g3880">
<path id="path3876" d="M326.584 172.295C321.828 172.295 317.974 176.15 317.974 180.905C317.974 185.66 321.828 189.515 326.584 189.515C331.34 189.515 335.194 185.66 335.194 180.905C335.194 176.15 331.34 172.295 326.584 172.295ZM326.584 188.826C322.216 188.826 318.662 185.273 318.662 180.905C318.662 176.537 322.216 172.983 326.584 172.983C330.952 172.983 334.505 176.537 334.505 180.905C334.505 185.273 330.952 188.826 326.584 188.826Z" fill="#999DA6" stroke="#99A1A6" stroke-width="0.344411"/>
<path id="path3878" d="M329.896 178.943L326.207 182.739L324.015 180.547C323.881 180.412 323.663 180.412 323.528 180.547C323.394 180.681 323.394 180.899 323.528 181.034L326.215 183.72L330.39 179.423C330.523 179.286 330.519 179.068 330.383 178.936C330.247 178.803 330.029 178.806 329.896 178.943Z" fill="#999DA6" stroke="#99A1A6" stroke-width="0.344411"/>
</g>
<g id="cash">
<path id="path3882" d="M386.856 187.793H404.077V179.183H386.856V187.793ZM403.388 187.104H402.223C402.22 187.073 402.214 187.043 402.214 187.011C402.214 186.4 402.711 185.902 403.322 185.902C403.345 185.902 403.366 185.908 403.388 185.909V187.104ZM402.223 179.872H403.388V181.067C403.366 181.068 403.345 181.074 403.322 181.074C402.711 181.074 402.214 180.576 402.214 179.965C402.214 179.933 402.22 179.903 402.223 179.872ZM387.545 179.872H388.71C388.713 179.903 388.72 179.933 388.72 179.965C388.72 180.576 388.222 181.074 387.611 181.074C387.589 181.074 387.567 181.068 387.545 181.067V179.872ZM387.545 181.755C387.568 181.757 387.589 181.762 387.611 181.762C388.604 181.762 389.409 180.957 389.409 179.965C389.409 179.933 389.401 179.903 389.399 179.872H401.534C401.533 179.903 401.525 179.933 401.525 179.965C401.525 180.957 402.33 181.762 403.322 181.762C403.345 181.762 403.366 181.757 403.388 181.755V185.221C403.366 185.22 403.345 185.214 403.322 185.214C402.33 185.214 401.525 186.019 401.525 187.012C401.525 187.044 401.533 187.073 401.534 187.105H389.399C389.401 187.073 389.409 187.044 389.409 187.012C389.409 186.019 388.604 185.214 387.611 185.214C387.589 185.214 387.568 185.22 387.545 185.221V181.755ZM387.545 185.909C387.567 185.908 387.589 185.902 387.611 185.902C388.222 185.902 388.72 186.4 388.72 187.011C388.72 187.043 388.713 187.073 388.71 187.104H387.545V185.909Z" fill="#999DA6"/>
<path id="path3884" d="M395.674 185.53C396.815 185.53 397.74 184.605 397.74 183.465C397.74 182.322 396.815 181.397 395.674 181.397C394.532 181.397 393.607 182.322 393.607 183.465C393.607 184.605 394.532 185.53 395.674 185.53ZM395.674 182.086C396.433 182.086 397.051 182.704 397.051 183.465C397.051 184.224 396.433 184.841 395.674 184.841C394.914 184.841 394.296 184.224 394.296 183.465C394.296 182.704 394.914 182.086 395.674 182.086Z" fill="#999DA6"/>
<path id="circle3886" d="M391.196 184.153C391.577 184.153 391.885 183.844 391.885 183.464C391.885 183.083 391.577 182.775 391.196 182.775C390.816 182.775 390.508 183.083 390.508 183.464C390.508 183.844 390.816 184.153 391.196 184.153Z" fill="#999DA6"/>
<path id="circle3888" d="M399.807 184.153C400.187 184.153 400.496 183.844 400.496 183.464C400.496 183.083 400.187 182.775 399.807 182.775C399.426 182.775 399.118 183.083 399.118 183.464C399.118 183.844 399.426 184.153 399.807 184.153Z" fill="#999DA6"/>
<path id="rect3890" d="M386.85 177.47L386.878 178.158L404.098 177.469L404.071 176.781L386.85 177.47Z" fill="#999DA6"/>
<path id="rect3892" d="M404.11 175.056L404.054 174.369L386.834 175.753L386.889 176.44L404.11 175.056Z" fill="#999DA6"/>
</g>
<g id="truck">
<path id="path3896" d="M367.914 179.183H363.436V175.739C363.436 174.789 362.664 174.017 361.714 174.017H354.137C353.188 174.017 352.415 174.789 352.415 175.739V182.627V186.071H354.972C355.237 185.463 355.842 185.038 356.548 185.038C357.254 185.038 357.859 185.463 358.125 186.071H364.615C364.881 185.463 365.486 185.038 366.192 185.038C366.898 185.038 367.503 185.463 367.768 186.071H369.636V182.627L367.914 179.183ZM353.104 175.739C353.104 175.169 353.568 174.705 354.137 174.705H361.714C362.284 174.705 362.748 175.169 362.748 175.739V179.183V182.627H353.104V175.739ZM368.947 185.382H368.168C367.723 184.743 366.989 184.349 366.192 184.349C365.395 184.349 364.66 184.743 364.215 185.382H358.525C358.08 184.743 357.346 184.349 356.549 184.349C355.752 184.349 355.017 184.743 354.572 185.382H353.104V183.316H362.748H363.436V182.627V179.872H367.529L368.947 182.789V185.382Z" fill="#999DA6"/>
<path id="path3898" d="M366.192 185.554C365.526 185.554 364.986 186.094 364.986 186.76C364.986 187.426 365.526 187.965 366.192 187.965C366.858 187.965 367.397 187.426 367.397 186.76C367.397 186.094 366.858 185.554 366.192 185.554ZM366.192 187.277C365.907 187.277 365.675 187.045 365.675 186.76C365.675 186.475 365.907 186.243 366.192 186.243C366.477 186.243 366.708 186.475 366.708 186.76C366.708 187.045 366.477 187.277 366.192 187.277Z" fill="#999DA6"/>
<path id="path3900" d="M356.548 185.554C355.882 185.554 355.343 186.094 355.343 186.76C355.343 187.426 355.882 187.965 356.548 187.965C357.214 187.965 357.754 187.426 357.754 186.76C357.754 186.094 357.214 185.554 356.548 185.554ZM356.548 187.277C356.263 187.277 356.032 187.045 356.032 186.76C356.032 186.475 356.263 186.243 356.548 186.243C356.833 186.243 357.065 186.475 357.065 186.76C357.065 187.045 356.833 187.277 356.548 187.277Z" fill="#999DA6"/>
<path id="polygon3902" d="M359.644 177.878L357.573 175.723L355.501 177.878L355.972 178.376L357.237 177.049V180.905H357.926V177.05L359.178 178.376L359.644 177.878Z" fill="#999DA6"/>
</g>
<path id="path3906" d="M402.52 40.7294H399.944L396.684 37.4699C396.996 37.1582 397.189 36.7277 397.189 36.2521C397.189 35.3012 396.418 34.53 395.467 34.53C394.515 34.53 393.745 35.3012 393.745 36.2521C393.745 36.7277 393.938 37.1582 394.249 37.4699L390.989 40.7294H388.414C387.554 40.7294 386.856 41.4269 386.856 42.2872V50.1928C386.856 51.0532 387.554 51.7506 388.414 51.7506H402.519C403.379 51.7506 404.077 51.0532 404.077 50.1928V42.2872C404.077 41.4269 403.38 40.7294 402.52 40.7294ZM395.467 35.2188C396.036 35.2188 396.5 35.6824 396.5 36.2521C396.5 36.8217 396.036 37.2853 395.467 37.2853C394.897 37.2853 394.434 36.8217 394.434 36.2521C394.434 35.6824 394.897 35.2188 395.467 35.2188ZM394.841 37.9741H396.093L398.911 40.7294H392.023L394.841 37.9741ZM403.388 50.1663C403.388 50.6609 402.987 51.0618 402.493 51.0618H388.441C387.946 51.0618 387.545 50.6609 387.545 50.1663V42.3137C387.545 41.8191 387.946 41.4183 388.441 41.4183H390.301H400.633H402.493C402.987 41.4183 403.388 41.8191 403.388 42.3137V50.1663Z" fill="#999DA6"/>
<g id="g3912">
<path id="path3908" d="M294.554 6.76252V2.84415C294.554 1.27329 293.32 0 291.799 0C290.277 0 289.044 1.27329 289.044 2.84415V6.56896C287.205 7.50989 285.944 9.41896 285.944 11.6266C285.944 14.7653 288.488 17.3094 291.627 17.3094C294.765 17.3094 297.309 14.7653 297.309 11.6266C297.309 9.56051 296.203 7.75752 294.554 6.76252ZM289.732 2.84415C289.732 1.65559 290.659 0.688823 291.799 0.688823C292.938 0.688823 293.865 1.65559 293.865 2.84415V6.4033C293.178 6.10848 292.422 5.94385 291.627 5.94385C290.961 5.94385 290.326 6.06405 289.732 6.27414V2.84415ZM291.627 16.6206C288.873 16.6206 286.633 14.3802 286.633 11.6266C286.633 8.87307 288.873 6.63267 291.627 6.63267C294.38 6.63267 296.621 8.87307 296.621 11.6266C296.621 14.3802 294.38 16.6206 291.627 16.6206Z" fill="#999DA6"/>
<path id="path3910" d="M291.627 10.0768C290.771 10.0768 290.077 10.7708 290.077 11.6266C290.077 12.3006 290.509 12.8679 291.11 13.0818V14.8985H292.143V13.0818C292.744 12.8682 293.177 12.3006 293.177 11.6266C293.177 10.7708 292.483 10.0768 291.627 10.0768Z" fill="#999DA6"/>
</g>
<path id="box" d="M401.535 103.412H389.481L386.856 108.579V120.633H404.077V108.579L401.535 103.412ZM389.91 104.101H401.105L403.309 108.579H387.627L389.91 104.101ZM403.388 119.944H399.944V115.4L401.196 116.727L401.662 116.229L399.59 114.074L397.519 116.229L397.99 116.727L399.255 115.4V119.944H387.545V109.267H403.388L403.388 119.944Z" fill="#999DA6"/>
<path id="lock" d="M329.34 6.76252V2.84415C329.34 1.27329 328.106 0 326.584 0C325.063 0 323.829 1.27329 323.829 2.84415V4.5662H324.518V2.84415C324.518 1.65558 325.445 0.688824 326.584 0.688824C327.724 0.688824 328.651 1.65558 328.651 2.84415V6.40329C327.964 6.10848 327.208 5.94385 326.412 5.94385C325.747 5.94385 325.111 6.06405 324.518 6.27414L323.829 6.56896C321.991 7.50989 320.729 9.41896 320.729 11.6266C320.729 14.7653 323.274 17.3094 326.412 17.3094C329.551 17.3094 332.095 14.7653 332.095 11.6266C332.095 9.56051 330.989 7.75752 329.34 6.76252ZM326.412 16.6206C323.659 16.6206 321.418 14.3802 321.418 11.6266C321.418 8.87307 323.659 6.63267 326.412 6.63267C329.166 6.63267 331.406 8.87307 331.406 11.6266C331.406 14.3802 329.166 16.6206 326.412 16.6206ZM326.412 10.0768C325.556 10.0768 324.862 10.7708 324.862 11.6266C324.862 12.3006 325.295 12.8679 325.896 13.0818V14.8985H326.929V13.0818C327.53 12.8682 327.962 12.3006 327.962 11.6266C327.962 10.7708 327.268 10.0768 326.412 10.0768Z" fill="#999DA6"/>
<path id="path893" fill-rule="evenodd" clip-rule="evenodd" d="M239.818 77.9224H355.179C355.991 77.9224 356.743 78.2531 357.284 78.7943C357.825 79.3354 358.156 80.0871 358.156 80.8988V216.825C358.156 217.637 357.825 218.388 357.284 218.929C356.743 219.471 355.991 219.801 355.179 219.801H248.748V243.403H292.342L295.229 248.724V250.799H294.988L294.597 253.475H184.077L183.686 250.799H183.445V248.724L186.332 243.403H229.927V219.801H123.495C122.683 219.801 121.931 219.471 121.39 218.929C120.849 218.388 120.518 217.637 120.518 216.825V80.8988C120.518 80.0871 120.849 79.3354 121.39 78.7943C121.931 78.2531 122.683 77.9224 123.495 77.9224H239.818Z" fill="#1A1A1A"/>
<path id="path895" fill-rule="evenodd" clip-rule="evenodd" d="M239.337 78.4033H355.149C356.563 78.4033 357.675 79.5157 357.675 80.9288V216.795C357.675 218.178 356.563 219.32 355.149 219.32H123.525C122.112 219.32 121 218.178 121 216.795V80.9288C121 79.5157 122.112 78.4033 123.525 78.4033H239.337Z" fill="#252525"/>
<path id="path897" fill-rule="evenodd" clip-rule="evenodd" d="M239.337 78.4033H355.149C356.562 78.4033 357.675 79.5157 357.675 80.9288V216.795C357.675 218.178 356.562 219.32 355.149 219.32H290.869L157.89 78.4033H239.337Z" fill="#2E2828"/>
<path id="path4129" d="M318.663 78.9522L235.081 211.463L181.026 211.523L261.809 78.7986L318.663 78.9522Z" fill="url(#paint0_linear_4_1732)"/>
<path id="path899" d="M238.375 78.8544H123.495C122.954 78.8544 122.442 79.0949 122.052 79.4557C121.691 79.8466 121.45 80.3577 121.45 80.8988V216.825C121.45 217.366 121.691 217.877 122.052 218.238C122.442 218.629 122.954 218.839 123.495 218.839H238.375V211.473H239.337V219.801H123.495C122.683 219.801 121.931 219.471 121.39 218.929C120.849 218.388 120.518 217.637 120.518 216.825V80.8988C120.518 80.0871 120.849 79.3354 121.39 78.7943C121.931 78.2531 122.683 77.9224 123.495 77.9224H239.337V78.8544H238.375Z" fill="#D6D3D3"/>
<path id="path901" d="M240.299 78.8544H355.179C355.721 78.8544 356.232 79.0949 356.623 79.4557C356.983 79.8466 357.224 80.3577 357.224 80.8988V216.825C357.224 217.366 356.983 217.877 356.623 218.238C356.232 218.629 355.721 218.839 355.179 218.839H240.299V211.473H239.337V219.801H355.179C355.991 219.801 356.743 219.471 357.284 218.929C357.825 218.388 358.156 217.637 358.156 216.825V80.8988C358.156 80.0871 357.825 79.3354 357.284 78.7943C356.743 78.2531 355.991 77.9224 355.179 77.9224H239.337V78.8544H240.299Z" fill="#C0C0C0"/>
<path id="polygon903" fill-rule="evenodd" clip-rule="evenodd" d="M186.332 243.403L183.445 248.724H239.337V243.403H186.332Z" fill="#B3B3B3"/>
<path id="polygon905" fill-rule="evenodd" clip-rule="evenodd" d="M239.337 243.403H292.343L295.229 248.724H239.337V243.403Z" fill="#A8A8A8"/>
<path id="rect907" d="M239.337 248.724H183.445V250.789H239.337V248.724Z" fill="#DBDBDB"/>
<path id="rect909" d="M295.229 248.724H239.337V250.789H295.229V248.724Z" fill="#C5C5C5"/>
<path id="polygon911" fill-rule="evenodd" clip-rule="evenodd" d="M239.337 250.799V253.475H184.077L183.686 250.799H239.337Z" fill="#1F1F1F"/>
<path id="polygon913" fill-rule="evenodd" clip-rule="evenodd" d="M294.988 250.799H239.337V253.475H294.597L294.988 250.799Z" fill="#161616"/>
<path id="rect915" d="M239.337 245.116H229.927V248.724H239.337V245.116Z" fill="#383737"/>
<path id="rect917" d="M248.748 245.116H239.337V248.724H248.748V245.116Z" fill="#2B2B2B"/>
<path id="path919" fill-rule="evenodd" clip-rule="evenodd" d="M121 211.473V216.825C121 218.208 122.112 219.32 123.495 219.32H238.856V211.473H121Z" fill="#D6D3D3"/>
<path id="path921" fill-rule="evenodd" clip-rule="evenodd" d="M357.675 211.473V216.825C357.675 218.208 356.562 219.32 355.179 219.32H239.818V211.473H357.675Z" fill="#C0C0C0"/>
<path id="rect923" d="M239.337 219.801H229.927V245.116H239.337V219.801Z" fill="#1C1C1C"/>
<path id="rect925" d="M248.748 219.801H239.337V245.116H248.748V219.801Z" fill="#090909"/>
<path id="path929" fill-rule="evenodd" clip-rule="evenodd" d="M235.489 217.126C235.459 217.246 235.308 217.246 235.188 217.246C235.128 217.246 235.128 217.246 235.098 217.216C235.068 217.186 235.068 217.186 235.068 217.125C235.068 217.095 235.098 217.005 235.128 216.945C235.158 216.945 235.158 216.915 235.188 216.885C235.188 216.855 235.218 216.855 235.248 216.825C235.278 216.795 235.308 216.734 235.368 216.795C235.399 216.855 235.549 217.005 235.489 217.126ZM236.391 216.735C236.421 216.735 236.511 216.855 236.511 216.885C236.481 216.885 236.361 216.795 236.391 216.735ZM242.133 216.945L242.163 216.915V216.975L242.133 216.945ZM242.073 216.675C242.043 216.644 242.073 216.554 242.103 216.524C242.103 216.584 242.103 216.644 242.073 216.675ZM240.87 216.404C240.87 216.464 240.84 216.524 240.81 216.554C240.81 216.584 240.66 216.885 240.57 216.795C240.479 216.705 240.78 216.434 240.87 216.404ZM242.825 216.464C242.885 216.464 242.885 216.464 242.915 216.494C242.975 216.494 242.975 216.464 243.005 216.494C243.005 216.524 242.975 216.675 242.975 216.705C242.945 216.675 242.825 216.524 242.825 216.464ZM235.459 216.644C235.579 216.524 236 216.404 236.18 216.404C236.27 216.404 236.24 216.374 236.391 216.374C236.571 216.404 236.872 216.434 236.932 216.644C236.962 216.705 236.962 216.765 236.932 216.825C236.932 216.855 236.902 216.945 236.872 216.975C236.721 217.065 236.721 216.705 236.481 216.554C236.421 216.524 236.3 216.434 236.21 216.524C236.15 216.614 236.15 216.765 236.21 216.855C236.27 217.005 236.39 217.065 236.541 217.125C236.601 217.156 236.631 217.156 236.661 217.186C236.691 217.246 236.721 217.276 236.751 217.306C236.811 217.366 236.811 217.396 236.902 217.396C236.932 217.366 236.962 217.306 236.992 217.276C237.022 217.216 237.022 217.186 237.112 217.186C237.172 217.186 237.202 217.186 237.262 217.155C237.383 217.155 237.353 217.155 237.443 217.125C237.593 217.065 237.563 217.035 237.653 216.945C237.713 217.035 237.683 217.276 237.864 217.216C237.954 217.216 237.924 217.095 237.924 217.035C237.894 216.945 237.954 216.704 237.984 216.584C238.014 216.554 238.044 216.494 238.104 216.434C238.164 216.344 238.375 216.283 238.435 216.404C238.465 216.464 238.405 216.524 238.375 216.584C238.345 216.614 238.285 216.765 238.255 216.795C238.225 216.945 238.255 217.125 238.405 217.185C238.585 217.276 238.646 217.276 238.856 217.246C238.976 217.216 239.036 217.155 239.127 217.095C239.127 217.065 239.157 217.005 239.187 217.005C239.217 217.065 239.247 217.426 239.397 217.366C239.427 217.366 239.457 217.336 239.487 217.306C239.517 217.216 239.457 217.185 239.457 217.125C239.427 217.065 239.427 216.855 239.427 216.795V216.674C239.427 216.584 239.457 216.434 239.457 216.374C239.517 216.223 239.788 216.253 239.848 216.434C239.848 216.494 239.848 216.524 239.818 216.554C239.788 216.614 239.788 216.614 239.758 216.644C239.728 216.674 239.758 216.674 239.698 216.765C239.608 216.855 239.547 216.945 239.547 217.095C239.547 217.095 239.578 217.186 239.608 217.186C239.788 217.396 240.239 217.276 240.449 217.186C240.48 217.186 240.63 217.095 240.66 217.095C240.66 217.155 240.63 217.246 240.69 217.336C240.75 217.396 240.75 217.426 240.81 217.486C240.931 217.606 241.141 217.606 241.291 217.576C241.381 217.546 241.532 217.516 241.592 217.456C241.622 217.426 241.652 217.426 241.682 217.396C241.742 217.366 241.983 217.125 242.013 217.125C242.043 217.125 242.073 217.186 242.103 217.216C242.163 217.246 242.193 217.276 242.253 217.276C242.284 217.306 242.344 217.276 242.374 217.246C242.464 217.155 242.344 216.885 242.344 216.765C242.313 216.704 242.313 216.644 242.313 216.584C242.313 216.554 242.344 216.464 242.344 216.434H242.554C242.614 216.434 242.644 216.494 242.644 216.554C242.704 216.644 242.765 216.765 242.825 216.855C242.885 216.945 242.975 217.035 243.005 217.125C243.005 217.155 243.065 217.246 243.095 217.276C243.125 217.336 243.155 217.336 243.246 217.306C243.276 217.276 243.306 217.186 243.276 217.155C243.246 217.035 243.155 217.035 243.155 216.825C243.185 216.795 243.155 216.765 243.185 216.704V216.614C243.216 216.494 243.306 216.344 243.155 216.284C243.125 216.223 243.035 216.253 242.975 216.253C242.915 216.253 242.795 216.253 242.765 216.223C242.734 216.163 242.734 216.073 242.765 216.043C242.765 215.983 242.825 215.953 242.855 215.893C242.915 215.863 243.155 215.802 243.216 215.772C243.546 215.712 243.667 215.712 243.997 215.682C244.208 215.652 244.719 215.652 244.899 215.682C244.989 215.712 244.959 215.742 245.05 215.772C245.11 215.772 245.2 215.742 245.26 215.742C245.32 215.772 245.38 215.772 245.44 215.712C245.47 215.652 245.47 215.562 245.44 215.532C245.38 215.442 245.32 215.472 245.26 215.502L244.238 215.472H244.148C244.027 215.472 243.817 215.472 243.697 215.502C243.486 215.502 243.125 215.532 242.945 215.652C242.915 215.652 242.885 215.652 242.855 215.682C242.795 215.712 242.704 215.772 242.644 215.832C242.524 216.013 242.554 216.163 242.554 216.193C242.524 216.223 242.404 216.193 242.344 216.193C242.313 216.163 242.253 216.103 242.223 216.133C242.193 216.133 242.133 216.223 242.103 216.253C242.073 216.283 242.043 216.283 242.013 216.343C241.923 216.404 241.893 216.524 241.863 216.614V216.825C241.893 216.885 241.923 216.915 241.863 216.975C241.742 217.125 241.592 217.245 241.412 217.336C241.321 217.336 241.141 217.396 241.051 217.366C240.961 217.336 240.991 217.366 240.931 217.306C240.87 217.245 240.84 217.185 240.87 217.125C240.9 217.095 241.051 217.065 241.111 217.065H241.231C241.261 217.035 241.291 216.975 241.291 216.975C241.321 216.885 241.231 216.824 241.141 216.824C241.111 216.824 240.9 216.855 240.87 216.855C240.87 216.824 240.961 216.644 240.991 216.614C241.021 216.554 241.111 216.283 241.081 216.223C241.081 216.133 240.991 216.103 240.9 216.133C240.87 216.133 240.81 216.193 240.78 216.193C240.63 216.313 240.57 216.313 240.449 216.524C240.389 216.584 240.359 216.644 240.329 216.764C240.299 216.855 240.419 216.945 240.419 216.975C240.389 217.005 240.299 217.035 240.299 217.035C240.239 217.065 240.179 217.065 240.119 217.065C240.059 217.095 239.818 217.095 239.788 217.065C239.728 216.855 240.239 216.644 239.968 216.253C239.878 216.133 239.728 216.043 239.578 216.073C239.517 216.073 239.397 216.103 239.337 216.133C239.307 216.163 239.307 216.313 239.277 216.344C239.247 216.313 239.217 216.223 239.096 216.283C238.976 216.344 239.157 216.644 239.006 216.915C238.946 217.005 238.766 217.065 238.645 217.065C238.495 217.035 238.375 216.945 238.495 216.764C238.555 216.674 238.645 216.494 238.645 216.404C238.645 216.344 238.615 216.253 238.555 216.223C238.525 216.163 238.465 216.133 238.405 216.133C238.194 216.043 238.014 216.193 237.894 216.374C237.864 216.404 237.834 216.524 237.804 216.554C237.774 216.524 237.743 216.313 237.623 216.374C237.503 216.404 237.563 216.554 237.533 216.644C237.533 216.764 237.503 216.855 237.413 216.915C237.353 216.945 237.142 217.005 237.112 216.975C237.082 216.885 237.172 216.674 237.112 216.524C237.052 216.434 236.962 216.344 236.842 216.283C236.541 216.133 235.94 216.163 235.639 216.314L235.459 216.404C235.308 216.464 235.308 216.554 235.158 216.374C235.098 216.344 234.677 216.133 234.677 216.103C234.677 216.073 234.857 215.983 234.887 215.953C234.947 215.923 235.008 215.863 235.068 215.832C235.188 215.712 235.308 215.592 235.398 215.472C235.579 215.201 235.759 214.78 235.459 214.51C235.218 214.299 234.707 214.269 234.376 214.359C233.144 214.6 233.023 215.983 233.384 216.975C233.414 217.095 233.504 217.366 233.595 217.426C233.655 217.486 233.775 217.516 233.745 217.396C233.715 217.366 233.655 217.336 233.595 217.185C233.354 216.554 233.204 215.652 233.595 215.051C233.775 214.78 234.076 214.6 234.376 214.54C234.677 214.479 235.248 214.449 235.429 214.75C235.549 215.021 235.218 215.442 235.038 215.622C234.917 215.712 234.767 215.802 234.647 215.893C234.587 215.923 234.466 215.953 234.436 216.013C234.346 216.103 234.376 216.163 234.466 216.223C234.497 216.253 234.737 216.374 234.797 216.404C234.887 216.434 235.068 216.554 235.128 216.584C235.158 216.644 235.158 216.644 235.098 216.674C235.008 216.794 234.978 216.855 234.917 216.975C234.857 217.065 234.857 217.185 234.887 217.276C234.917 217.336 235.008 217.396 235.068 217.426C235.098 217.456 235.308 217.456 235.368 217.426C235.549 217.396 235.699 217.276 235.699 217.095C235.669 216.885 235.489 216.705 235.459 216.644Z" fill="#C9C3C3"/>
<path id="path931" fill-rule="evenodd" clip-rule="evenodd" d="M239.337 217.366V216.133C239.397 216.103 239.518 216.073 239.578 216.073C239.728 216.043 239.878 216.133 239.969 216.254C240.239 216.644 239.728 216.855 239.788 217.065C239.818 217.095 240.059 217.095 240.119 217.065C240.179 217.065 240.239 217.065 240.299 217.035C240.299 217.035 240.389 217.005 240.42 216.975C240.42 216.945 240.299 216.855 240.329 216.765C240.359 216.644 240.39 216.584 240.45 216.524C240.57 216.314 240.63 216.314 240.78 216.193C240.81 216.193 240.87 216.133 240.901 216.133C240.991 216.103 241.081 216.133 241.081 216.223C241.111 216.283 240.991 216.554 240.991 216.614C240.961 216.644 240.87 216.825 240.87 216.855C240.901 216.855 241.111 216.825 241.141 216.825C241.231 216.825 241.321 216.885 241.291 216.975C241.291 216.975 241.261 217.035 241.231 217.065H241.111C241.051 217.065 240.9 217.095 240.87 217.125C240.84 217.185 240.87 217.245 240.931 217.306C240.991 217.366 240.961 217.336 241.051 217.366C241.141 217.396 241.321 217.336 241.412 217.336C241.592 217.245 241.742 217.125 241.863 216.975C241.923 216.915 241.893 216.885 241.863 216.824V216.614C241.893 216.524 241.923 216.404 242.013 216.343C242.043 216.283 242.073 216.283 242.103 216.253C242.133 216.223 242.193 216.133 242.223 216.133C242.254 216.103 242.314 216.163 242.344 216.193C242.404 216.193 242.524 216.223 242.554 216.193C242.554 216.163 242.524 216.013 242.644 215.832C242.705 215.772 242.795 215.712 242.855 215.682C242.885 215.652 242.915 215.652 242.945 215.652C243.125 215.532 243.486 215.502 243.697 215.502C243.817 215.472 244.027 215.472 244.148 215.472H244.238L245.26 215.502C245.32 215.472 245.38 215.441 245.44 215.532C245.471 215.562 245.471 215.652 245.44 215.712C245.38 215.772 245.32 215.772 245.26 215.742C245.2 215.742 245.11 215.772 245.05 215.772C244.959 215.742 244.989 215.712 244.899 215.682C244.719 215.652 244.208 215.652 243.997 215.682C243.667 215.712 243.546 215.712 243.216 215.772C243.155 215.802 242.915 215.863 242.855 215.893C242.825 215.953 242.765 215.983 242.765 216.043C242.735 216.073 242.735 216.163 242.765 216.223C242.795 216.253 242.915 216.253 242.975 216.253C243.035 216.253 243.125 216.223 243.155 216.284C243.306 216.344 243.216 216.494 243.186 216.614V216.704C243.155 216.765 243.186 216.795 243.155 216.825C243.155 217.035 243.246 217.035 243.276 217.155C243.306 217.186 243.276 217.276 243.246 217.306C243.155 217.336 243.125 217.336 243.095 217.276C243.065 217.246 243.005 217.155 243.005 217.125C242.975 217.035 242.885 216.945 242.825 216.855C242.765 216.765 242.704 216.644 242.644 216.554C242.644 216.494 242.614 216.434 242.554 216.434H242.344C242.344 216.464 242.314 216.554 242.314 216.584C242.314 216.644 242.314 216.704 242.344 216.765C242.344 216.885 242.464 217.155 242.374 217.246C242.344 217.276 242.284 217.306 242.254 217.276C242.193 217.276 242.163 217.246 242.103 217.216C242.073 217.186 242.043 217.125 242.013 217.125C241.983 217.125 241.742 217.366 241.682 217.396C241.652 217.426 241.622 217.426 241.592 217.456C241.532 217.516 241.382 217.546 241.291 217.576C241.141 217.606 240.931 217.606 240.81 217.486C240.75 217.426 240.75 217.396 240.69 217.336C240.63 217.246 240.66 217.155 240.66 217.095C240.63 217.095 240.48 217.185 240.45 217.185C240.239 217.276 239.788 217.396 239.608 217.185C239.578 217.185 239.548 217.095 239.548 217.095C239.548 216.945 239.608 216.855 239.698 216.765C239.758 216.674 239.728 216.674 239.758 216.644C239.788 216.614 239.788 216.614 239.818 216.554C239.848 216.524 239.848 216.494 239.848 216.434C239.788 216.253 239.517 216.223 239.457 216.374C239.457 216.434 239.427 216.584 239.427 216.674V216.795C239.427 216.855 239.427 217.065 239.457 217.125C239.457 217.186 239.518 217.216 239.487 217.306C239.457 217.336 239.427 217.366 239.397 217.366C239.367 217.396 239.367 217.396 239.337 217.366ZM242.133 216.945L242.163 216.915V216.975L242.133 216.945ZM242.073 216.675C242.043 216.644 242.073 216.554 242.103 216.524C242.103 216.584 242.103 216.644 242.073 216.675ZM240.87 216.404C240.87 216.464 240.84 216.524 240.81 216.554C240.81 216.584 240.66 216.885 240.57 216.795C240.48 216.705 240.78 216.434 240.87 216.404ZM242.825 216.464C242.885 216.464 242.885 216.464 242.915 216.494C242.975 216.494 242.975 216.464 243.005 216.494C243.005 216.524 242.975 216.675 242.975 216.705C242.945 216.674 242.825 216.524 242.825 216.464Z" fill="#BAB4B4"/>
<g id="g1457">
<g id="g1451">
<path id="rect1449" fill-rule="evenodd" clip-rule="evenodd" d="M67.8936 247.558H97.4766V253.475H67.8936V247.558Z" fill="#1D2943"/>
</g>
<g id="g1455">
<path id="path1453" fill-rule="evenodd" clip-rule="evenodd" d="M73.7188 84.2159V244.598H70.4209L67.8936 247.556H97.4766L94.9492 244.598H91.4688V84.2159H89.333V85.9669H75.9307V84.2159H73.7188ZM77.6133 87.4357H89.333V96.5568L77.6133 87.4357ZM75.9307 87.9855L88.1357 97.4884H75.9307V87.9855ZM77.6143 98.9562H89.333V108.078L77.6143 98.9562ZM75.9307 99.507L87.6104 108.6H75.9609L75.9306 108.576L75.9307 99.507ZM77.8486 110.069H89.333V119.008L77.8486 110.069ZM75.9307 110.436L88.1729 119.967H75.9307V110.436ZM77.6504 121.435H89.333V130.528L77.6504 121.435ZM75.9307 121.958L87.6475 131.078H75.9609L75.9306 131.055L75.9307 121.958ZM77.8496 132.548H89.333V141.485L77.8496 132.548ZM75.9307 132.914L88.1357 142.417H75.9307V132.914ZM77.6143 143.885H89.333V153.006L77.6143 143.885ZM75.9307 144.436L87.6104 153.527H75.9307V144.436ZM77.7549 154.998H89.333V164.01L77.7549 154.998ZM75.9307 155.438L88.1357 164.941H75.9307V155.438ZM77.6143 166.408H89.333V175.53L77.6143 166.408ZM75.9307 166.959L87.6104 176.052H75.9746L75.9307 176.018L75.9307 166.959ZM77.8643 177.523H89.333V186.449L77.8643 177.523ZM75.9307 177.877L88.1357 187.38H75.9307V177.877ZM77.6143 188.848H89.333V197.97L77.6143 188.848ZM75.9307 189.399L87.6104 198.491H75.959L75.9307 198.469L75.9307 189.399ZM77.8467 199.961H89.333V208.901L77.8467 199.961ZM75.9307 200.329L88.1357 209.832H75.9307V200.329ZM77.6143 211.3H89.333V220.422L77.6143 211.3ZM75.9307 211.851L87.6104 220.943H75.9307V211.851ZM76.1777 222.413H89.333V234.841L76.1777 222.413ZM75.9307 224.2L89.333 236.862V244.598H75.9307V224.2Z" fill="#FBD244"/>
</g>
</g>
<g id="g1681">
<g id="g1511">
<path id="rect1509" fill-rule="evenodd" clip-rule="evenodd" d="M10.6416 52.4653L78.6007 34.6917L78.9218 35.9196L10.9627 53.6932L10.6416 52.4653Z" fill="#1D2943"/>
</g>
<g id="g1515">
<path id="rect1513" fill-rule="evenodd" clip-rule="evenodd" d="M86.7405 34.9645L184.384 52.1815L184.163 53.4313L86.5201 36.2143L86.7405 34.9645Z" fill="#1D2943"/>
</g>
<g id="g1523">
<path id="rect1517" fill-rule="evenodd" clip-rule="evenodd" d="M11.8169 64.6892H33.1265V74.8811H11.8169V64.6892Z" fill="black"/>
<path id="rect1519" fill-rule="evenodd" clip-rule="evenodd" d="M11.8169 69.785H33.1265V71.7758H11.8169V69.785Z" fill="#FBD244"/>
<path id="path1521" fill-rule="evenodd" clip-rule="evenodd" d="M11.8169 71.1636L13.1952 69.785H15.1108L13.1201 71.7758H11.8169V71.1636ZM16.0784 71.7758H14.1628L16.1535 69.785H18.0691L16.0784 71.7758ZM19.0367 71.7758H17.1211L19.1119 69.785H21.0275L19.0367 71.7758ZM21.995 71.7758H20.0794L22.0702 69.785H23.9858L21.995 71.7758ZM24.9533 71.7758H23.0377L25.0285 69.785H26.9441L24.9533 71.7758ZM27.9117 71.7758H25.9961L27.9868 69.785H29.9024L27.9117 71.7758ZM30.87 71.7758H28.9544L30.9451 69.785H32.8607L30.87 71.7758ZM33.1262 71.7758H31.9127L33.1262 70.5622V71.7758Z" fill="black"/>
</g>
<g id="g1557">
<g id="g1543">
<path id="rect1541" fill-rule="evenodd" clip-rule="evenodd" d="M181.24 52.1818L108.314 52.1818L108.279 52.1818L108.279 52.2169L97.8877 62.6075L97.8984 62.6183L67.8369 62.6183L67.8476 62.6075L57.4209 52.1818L57.3691 52.2335L57.3691 52.1818L10.626 52.1818L10.4268 52.1818L-4.43529e-07 62.6075L0.0107379 62.6183L-4.43982e-07 62.6183L-5.3124e-07 64.6886L264.374 64.6886L264.374 62.6183L264.364 62.6183L264.375 62.6075L253.956 52.1896L253.956 52.1818L223.669 52.1818L223.571 52.0841L223.474 52.1818L181.436 52.1818L181.24 52.1818ZM57.3691 54.2218L65.7666 62.6183L55.4472 62.6183L47.081 54.2521L57.3691 54.2521L57.3691 54.2218ZM10.5361 54.2521L21.7519 54.2521L13.3857 62.6183L2.0908 62.6183L10.5361 54.2521ZM25.8926 54.2521L42.8633 54.2521L34.497 62.6183L34.2588 62.6183L25.8926 54.2521ZM108.336 54.252L115.284 54.252L106.918 62.6183L99.9687 62.6183L108.336 54.252ZM117.439 54.252L117.602 54.252L125.968 62.6183L109.074 62.6183L117.439 54.252ZM119.758 54.252L136.557 54.252L128.19 62.6183L128.124 62.6183L119.758 54.252ZM138.713 54.252L138.734 54.252L147.1 62.6183L130.347 62.6183L138.713 54.252ZM140.89 54.252L157.762 54.252L149.396 62.6183L149.256 62.6183L140.89 54.252ZM159.918 54.252L159.986 54.252L168.353 62.6183L151.552 62.6183L159.918 54.252ZM162.144 54.252L179.003 54.252L170.637 62.6183L170.51 62.6183L162.144 54.252ZM181.16 54.252L181.35 54.252L189.716 62.6183L172.793 62.6183L181.16 54.252ZM183.506 54.252L200.179 54.252L191.843 62.589L183.506 54.252ZM202.334 54.252L202.355 54.252L210.722 62.6183L193.969 62.6183L202.334 54.252ZM204.512 54.252L221.263 54.252L212.897 62.6183L212.878 62.6183L204.512 54.252ZM223.419 54.252L223.583 54.252L231.949 62.6183L215.053 62.6183L223.419 54.252ZM225.739 54.252L242.573 54.252L234.207 62.6183L234.105 62.6183L225.739 54.252ZM244.729 54.252L244.872 54.252L253.238 62.6183L236.363 62.6183L244.729 54.252ZM247.028 54.252L253.927 54.252L262.294 62.6183L255.395 62.6183L247.028 54.252ZM44.9717 54.2999L53.291 62.6183L36.6533 62.6183L44.9717 54.2999ZM23.8222 54.338L32.1025 62.6183L15.542 62.6183L23.8222 54.338Z" fill="#FBD244"/>
</g>
</g>
<g id="g1679">
<path id="path1647" fill-rule="evenodd" clip-rule="evenodd" d="M76.5 33.2911C76.1373 33.2911 75.8428 33.5857 75.8428 33.9484V35.2628C75.8428 35.6255 76.1373 35.92 76.5 35.92H77.9678L66.5439 63.0294L68.0273 63.6534L68.4326 62.6915L68.5537 63.0323L93.1973 54.2784L97.1387 63.6534L98.6221 63.0304L87.2266 35.92H89.3682C89.7308 35.92 90.0254 35.6255 90.0254 35.2628V33.9484C90.0254 33.5857 89.7308 33.2911 89.3682 33.2911H76.5ZM79.7139 35.92H85.4805L86.6826 38.7794H78.5088L79.7139 35.92ZM77.8838 40.2628H85.8379L76.4834 43.5851L77.8838 40.2628ZM87.6904 41.1788L89.1836 44.7306H77.6904L87.6904 41.1788ZM75.376 46.213H85.7969L73.542 50.5665L75.376 46.213ZM89.8613 46.3429L92.1279 51.7335H74.6865L89.8613 46.3429ZM72.4248 53.2169H91.7539L69.0225 61.2921L72.4248 53.2169Z" fill="#FBD244"/>
</g>
</g>
<g id="cuerda">
<g id="base_inferior">
<path id="path1525" fill-rule="evenodd" clip-rule="evenodd" d="M194.865 122.369C194.865 122.064 194.618 121.816 194.312 121.816H188.276C187.971 121.816 187.723 122.064 187.723 122.369V123.475C187.723 123.78 187.971 124.028 188.276 124.028H194.312C194.618 124.028 194.865 123.78 194.865 123.475V122.369Z" fill="#D0AE39"/>
</g>
<path id="union" fill-rule="evenodd" clip-rule="evenodd" d="M188.551 124.028H193.993V125.074H188.551V124.028Z" fill="#1D2943"/>
<path id="izquierda" fill-rule="evenodd" clip-rule="evenodd" d="M190.366 121.816H189.079L179.957 66.3743L181.209 66.1682L190.366 121.816Z" fill="#1D2943"/>
<path id="derecha" fill-rule="evenodd" clip-rule="evenodd" d="M192.158 121.816L201.271 66.1682L202.523 66.3733L193.444 121.816H192.158Z" fill="#1D2943"/>
<g id="base_superior">
<path id="path1535" fill-rule="evenodd" clip-rule="evenodd" d="M176.389 64.6899H205.972L203.444 67.6479H178.916L176.389 64.6899Z" fill="#D0AE39"/>
</g>
</g>
<g id="g1729">
<g id="g1711">
<g id="g1685">
<path id="path1683" fill-rule="evenodd" clip-rule="evenodd" d="M96.4863 81.701C96.4863 81.0479 95.9558 80.5173 95.3028 80.5173H69.601C68.9479 80.5173 68.4175 81.0479 68.4175 81.701V84.0679C68.4175 84.721 68.9479 85.2512 69.601 85.2512H95.3028C95.9558 85.2512 96.4863 84.721 96.4863 84.0679V81.701Z" fill="#D0AE39"/>
</g>
<g id="g1689">
<path id="path1687" fill-rule="evenodd" clip-rule="evenodd" d="M96.236 81.8052C96.236 81.2044 95.748 80.7163 95.1472 80.7163H69.7314C69.1305 80.7163 68.6426 81.2044 68.6426 81.8052V83.9827C68.6426 84.5835 69.1305 85.0713 69.7314 85.0713H95.1472C95.748 85.0713 96.236 84.5835 96.236 83.9827V81.8052Z" fill="#FBD244"/>
</g>
<path id="path1691" fill-rule="evenodd" clip-rule="evenodd" d="M68.6428 82.2512L70.1777 80.7166H72.212L68.6766 84.2519C68.6546 84.1658 68.6428 84.0756 68.6428 83.9827V82.2512Z" fill="black"/>
<path id="path1693" fill-rule="evenodd" clip-rule="evenodd" d="M73.7736 85.0715H71.7393L76.0942 80.7166H78.1285L73.7736 85.0715Z" fill="black"/>
<path id="path1695" fill-rule="evenodd" clip-rule="evenodd" d="M76.7318 85.0715H74.6975L79.0524 80.7166H81.0868L76.7318 85.0715Z" fill="black"/>
<path id="path1697" fill-rule="evenodd" clip-rule="evenodd" d="M79.6903 85.0715H77.656L82.0109 80.7166H84.0453L79.6903 85.0715Z" fill="black"/>
<path id="path1699" fill-rule="evenodd" clip-rule="evenodd" d="M82.6486 85.0715H80.6143L84.9692 80.7166H87.0035L82.6486 85.0715Z" fill="black"/>
<path id="path1701" fill-rule="evenodd" clip-rule="evenodd" d="M85.6068 85.0715H83.5725L87.9274 80.7166H89.9618L85.6068 85.0715Z" fill="black"/>
<path id="path1703" fill-rule="evenodd" clip-rule="evenodd" d="M88.5651 85.0715H86.5308L90.8857 80.7166H92.92L88.5651 85.0715Z" fill="black"/>
<path id="path1705" fill-rule="evenodd" clip-rule="evenodd" d="M95.1474 80.7166C95.3563 80.7166 95.5514 80.7754 95.7175 80.8776L91.5236 85.0715H89.4893L93.8442 80.7166H95.1474Z" fill="black"/>
<path id="path1707" fill-rule="evenodd" clip-rule="evenodd" d="M96.1465 81.3726C96.2041 81.5053 96.2361 81.6516 96.2361 81.8054V83.3172L94.4818 85.0715H92.4475L96.1465 81.3726Z" fill="black"/>
<path id="path1709" fill-rule="evenodd" clip-rule="evenodd" d="M69.0339 84.8183L73.1359 80.7166H75.1702L70.8153 85.0715H69.7315C69.4662 85.0715 69.223 84.9763 69.0339 84.8183Z" fill="black"/>
</g>
<g id="g1727">
<path id="rect1713" d="M80.8506 58.8591H70.4275V80.5166H80.8506V58.8591Z" fill="#D0AE39"/>
<path id="path1715" fill-rule="evenodd" clip-rule="evenodd" d="M80.8506 58.8591L89.4893 61.5852L95.7173 73.1843L93.453 80.5166L80.8506 80.7165V58.8591Z" fill="#FBD244"/>
<path id="path1717" fill-rule="evenodd" clip-rule="evenodd" d="M82.4521 61.0808L89.4894 64.1356L94.0074 72.904L93.1265 75.9661H82.4521V61.0808Z" fill="#CCE2A3"/>
<path id="path1719" fill-rule="evenodd" clip-rule="evenodd" d="M82.4521 61.8628V61.0808L89.4894 64.1356L94.0074 72.904L93.1265 75.9661H92.3951L93.1573 73.3171L88.6393 64.5488L82.4521 61.8628Z" fill="#A8C69F"/>
<g id="g1723">
<path id="rect1721" d="M78.9637 61.0809H72.3142V75.9663H78.9637V61.0809Z" fill="#CCE2A3"/>
</g>
<path id="path1725" fill-rule="evenodd" clip-rule="evenodd" d="M78.9637 75.9661H77.7928V62.2452H72.3142V61.0808H78.9637V75.9661Z" fill="#A8C69F"/>
</g>
</g>
<path id="engrane" d="M144.423 154.17L141.287 160.167L133.777 160.491L130.101 154.762C127.978 155.289 125.772 155.955 123.733 156.817L123.973 163.517L123.53 163.801V177.991C126.261 175.348 129.698 173.363 133.646 172.383C145.599 169.415 157.731 176.721 160.699 188.674C162.588 196.282 160.31 203.958 155.326 209.302H168.876L170.496 206.166L177.309 205.898C177.954 203.722 178.488 201.573 178.771 199.368L172.774 196.232L172.451 188.721L178.208 185.156C177.681 183.034 177.015 180.828 176.153 178.788L169.341 179.056L165.275 172.713L168.412 166.716C166.935 165.066 165.262 163.584 163.505 162.241L157.777 165.917L151.11 162.473L150.954 155.633C148.777 154.987 146.628 154.453 144.423 154.17Z" fill="#A8C69F"/>
<g id="montacargas">
<path id="rect1550" d="M355.242 207.027C352.502 207.027 349.621 209.063 348.884 211.633L343.823 229.284L345.771 229.6L350.923 211.633C351.339 210.184 352.968 208.987 354.68 208.987H370.53L368.543 207.027H355.242Z" fill="#2F2F2F"/>
<path id="path2327" d="M338.72 209.823C339.705 209.816 340.69 209.823 341.675 209.82C341.674 212.042 341.678 214.263 341.673 216.484C341.164 216.481 340.655 216.481 340.147 216.484C339.728 216.486 339.308 216.487 338.889 216.484C338.847 216.484 338.763 216.483 338.721 216.482C338.72 214.263 338.724 212.043 338.72 209.823Z" fill="#090909" stroke="#090909" stroke-width="0.0288741"/>
<path id="rect1643" d="M346.585 214.905C346.25 214.915 345.953 215.161 345.893 215.503L345.734 216.395L345.554 216.367C345.294 216.328 345.054 216.504 345.015 216.764L344.748 218.507C344.708 218.766 344.885 219.006 345.144 219.046L345.907 219.163C346.166 219.203 346.408 219.026 346.447 218.767L346.714 217.023C346.753 216.764 346.577 216.523 346.317 216.483L346.228 216.47L346.385 215.591C346.407 215.465 346.517 215.386 346.643 215.408L348.051 215.658L348.114 215.545L348.016 215.152L346.73 214.916C346.682 214.907 346.633 214.904 346.585 214.905Z" fill="#090909"/>
<path id="path2331" d="M338.889 216.484C339.308 216.487 339.728 216.486 340.147 216.484C340.174 220.851 340.14 225.219 340.164 229.586C339.738 229.599 339.312 229.604 338.886 229.593C338.907 226.568 338.889 223.543 338.895 220.517C338.891 219.173 338.903 217.828 338.889 216.484Z" fill="#4F676F" stroke="#415C77" stroke-width="0.0288741"/>
<path id="path2333" d="M364.911 220.629C365.152 220.181 365.748 220.011 366.212 220.188C366.476 220.301 366.687 220.532 366.788 220.8C366.774 223.439 366.786 226.078 366.782 228.717C366.778 229.122 366.8 229.528 366.76 229.931C366.582 229.766 366.463 229.546 366.274 229.394C365.853 229.102 365.292 229.014 364.806 229.18C364.824 226.572 364.809 223.964 364.813 221.355C364.823 221.113 364.771 220.845 364.911 220.629Z" fill="#090909" stroke="#090909" stroke-width="0.0288741"/>
<path id="path2335" d="M366.788 220.8C366.822 220.962 366.843 221.128 366.845 221.294C366.843 224.207 366.845 227.12 366.844 230.033C366.844 230.435 366.931 230.858 366.769 231.241C366.676 231.415 366.539 231.561 366.411 231.709C366.136 232.046 365.672 232.08 365.321 232.301L365.278 232.319C365.341 232.265 365.403 232.207 365.466 232.151C365.081 232.135 364.673 232.095 364.363 231.844C363.981 231.557 363.767 231.09 363.761 230.617C363.753 229.978 364.182 229.353 364.806 229.18C365.293 229.013 365.853 229.102 366.274 229.394C366.463 229.546 366.582 229.766 366.761 229.931C366.8 229.528 366.778 229.122 366.782 228.717C366.786 226.078 366.774 223.439 366.788 220.8Z" fill="#4A4D54" stroke="#403447" stroke-width="0.0288741"/>
<path id="path2339" d="M349.352 223.48C349.622 223.607 349.916 223.675 350.188 223.8C350.121 223.814 349.991 223.842 349.991 223.842L346.826 229.754C346.826 229.754 344.521 229.746 344.024 229.529C344.036 229.489 344.135 228.925 344.135 228.925L345.761 229.146C345.761 229.146 345.634 229.574 345.638 229.655C345.893 229.698 346.094 229.602 346.094 229.602L349.352 223.48Z" fill="#7E7E7E" stroke="#7E7E7E" stroke-width="0.0288741"/>
<path id="path1655" d="M349.528 226.968C349.329 226.968 349.139 227.047 348.998 227.188C348.857 227.328 348.778 227.519 348.778 227.718C348.779 227.875 348.829 228.029 348.921 228.156L347.417 229.842L347.704 229.975L349.145 228.361C349.261 228.431 349.393 228.468 349.528 228.468C349.727 228.468 349.918 228.389 350.059 228.248C350.199 228.108 350.278 227.917 350.278 227.718C350.278 227.519 350.199 227.328 350.059 227.188C349.918 227.047 349.727 226.968 349.528 226.968Z" fill="black"/>
<path id="path1667" d="M343.649 230.489L341.759 230.427L341.587 231.786L343.368 232.568L343.649 230.489Z" fill="black"/>
<path id="path2347" d="M344.111 228.917C344.111 228.917 344.061 229.175 344.045 229.31C344.494 229.376 345.248 229.479 345.248 229.479C345.248 229.479 346.573 229.689 348.166 229.941C348.125 229.948 348.043 229.959 348.002 229.966C348.04 230.134 348.107 230.321 348.01 230.483C347.71 231.074 347.396 231.678 346.914 232.145C346.597 232.452 346.056 232.524 345.885 232.973C345.728 233.534 345.49 234.068 345.339 234.631C345.157 235.289 344.892 235.918 344.705 236.574C344.569 236.982 344.446 237.393 344.322 237.804C344.217 238.169 344.044 238.509 343.96 238.88C342.269 238.881 340.579 238.873 338.889 238.875C338.905 237.206 338.89 235.535 338.897 233.865C338.9 233.636 338.894 233.406 338.868 233.179C339.3 233.17 339.735 233.146 340.166 233.201C340.147 234.701 340.129 236.236 340.129 236.236L341.605 236.202L343.944 228.902L344.111 228.917Z" fill="#4F676F" stroke="#415C77" stroke-width="0.0288741"/>
<path id="path2349" d="M337.695 229.627C337.812 229.61 337.929 229.592 338.048 229.584C338.327 229.587 338.607 229.591 338.886 229.593C339.312 229.604 339.738 229.599 340.164 229.586C340.201 230.253 340.169 230.922 340.18 231.59C340.171 232.127 340.198 232.665 340.165 233.2C339.734 233.145 339.3 233.169 338.867 233.178C338.594 233.184 338.312 233.145 338.05 233.241C337.935 233.219 337.82 233.193 337.707 233.169C337.649 232.685 337.692 232.196 337.68 231.71C337.689 231.016 337.66 230.321 337.695 229.627Z" fill="#4A4D54" stroke="#403447" stroke-width="0.0288741"/>
<path id="path1665" d="M348.002 237.123L347.395 237.333L347.179 238.316L347.466 238.565L347.693 237.614L348.395 237.388L348.002 237.123Z" fill="black"/>
<path id="path2351" d="M348.002 229.966C348.043 229.959 348.125 229.947 348.166 229.941C348.624 229.973 349.069 230.104 349.528 230.126C349.826 230.118 350.058 230.471 349.936 230.743C349.821 231.059 349.669 231.365 349.459 231.63C349.201 231.969 348.997 232.372 348.623 232.601C348.378 232.775 348.097 232.895 347.863 233.083C347.552 233.88 347.386 234.728 347.051 235.517C346.853 236.153 346.674 236.796 346.457 237.427C345.99 237.572 345.719 238.021 345.563 238.456C345.51 238.59 345.517 238.753 345.432 238.871C344.943 238.906 344.45 238.87 343.959 238.881C344.043 238.51 344.217 238.169 344.322 237.804C344.445 237.393 344.569 236.982 344.705 236.574C344.892 235.919 345.157 235.289 345.339 234.632C345.489 234.068 345.728 233.535 345.885 232.973C346.056 232.524 346.597 232.452 346.914 232.145C347.396 231.679 347.71 231.075 348.01 230.483C348.107 230.321 348.04 230.134 348.002 229.966Z" fill="#2F2F2F" stroke="#2F2F2F" stroke-width="0.0288741"/>
<path id="path2353" d="M355.789 231.153C355.927 230.788 356.34 230.597 356.712 230.61C359.062 230.617 361.411 230.604 363.761 230.617C363.767 231.091 363.981 231.558 364.363 231.844C364.673 232.096 365.081 232.136 365.466 232.151C365.403 232.208 365.341 232.265 365.277 232.32C365.088 232.403 364.882 232.442 364.678 232.444C362.363 232.441 360.047 232.443 357.732 232.442C357.21 232.431 356.672 232.502 356.171 232.315C355.752 232.115 355.584 231.562 355.789 231.153Z" fill="#090909" stroke="#090909" stroke-width="0.0288741"/>
<path id="path2355" d="M376.77 240.089C376.743 239.81 376.754 239.53 376.753 239.251C376.752 237.675 376.742 236.099 376.745 234.523C376.789 233.845 376.804 233.164 376.748 232.487C376.73 232.054 376.717 231.594 376.486 231.213C376.246 230.872 375.866 230.646 375.465 230.548C374.827 230.324 374.138 230.374 373.475 230.407C372.623 230.401 371.71 230.446 370.859 230.41C370.875 230.718 370.877 231.027 370.908 231.335C370.911 231.608 370.908 231.883 370.945 232.155C371.024 232.709 371.024 233.273 371.138 233.822C371.172 234.455 371.191 235.089 371.272 235.719C371.366 236.469 371.357 237.227 371.423 237.979C371.486 238.282 371.561 238.592 371.557 238.901C370.616 238.927 369.675 238.903 368.734 238.911C365.825 238.907 362.917 238.908 360.008 238.904C358.652 238.894 357.296 238.921 355.94 238.886C353.293 238.87 350.644 238.889 347.996 238.875C347.919 238.453 347.804 237.986 347.504 237.69C347.203 237.395 346.875 237.346 346.458 237.428C346.041 237.509 345.668 238.172 345.564 238.457C345.46 238.741 345.519 238.753 345.434 238.871C344.94 238.875 344.451 238.87 343.961 238.881C342.27 238.882 340.58 238.874 338.89 238.876C338.611 238.877 338.332 238.877 338.054 238.875C337.705 238.873 337.008 238.886 337.008 238.886L336.909 243.225C336.909 243.225 337.548 242.764 337.638 242.686C337.585 242.439 337.528 242.192 337.505 241.94C337.454 241.664 337.726 241.488 337.915 241.342C338.313 241.099 338.673 240.791 339.108 240.615C339.686 240.362 340.289 240.169 340.9 240.017C341.627 239.868 342.377 239.889 343.114 239.931C343.665 239.955 344.185 240.151 344.709 240.306C345.222 240.474 345.724 240.691 346.172 240.997C347.118 241.578 347.943 242.375 348.501 243.34C349.1 244.234 349.36 245.304 349.498 246.359C349.571 247.051 349.511 247.753 349.383 248.436C349.375 248.527 349.33 248.643 349.43 248.704C349.72 248.756 350.018 248.722 350.312 248.728C354.862 248.729 359.411 248.727 363.961 248.729C364.058 248.716 364.189 248.737 364.244 248.631C364.245 248.427 364.191 248.228 364.168 248.028C364.071 247.24 364.176 246.445 364.338 245.673C364.46 245.238 364.629 244.817 364.791 244.395C364.972 243.913 365.286 243.501 365.56 243.07C365.915 242.558 366.357 242.109 366.841 241.717C367.172 241.372 367.604 241.161 367.998 240.9C368.634 240.506 369.359 240.297 370.075 240.099C370.631 239.922 371.22 239.905 371.799 239.902C372.32 239.902 372.847 239.909 373.357 240.029C373.984 240.19 374.613 240.36 375.2 240.638C375.65 240.818 376.035 241.117 376.446 241.367C376.567 241.449 376.729 241.533 376.719 241.706C376.748 242.222 376.711 242.74 376.722 243.257L376.766 243.291C376.793 242.683 376.785 242.074 376.752 241.467C376.732 241.008 376.807 240.55 376.77 240.091L376.77 240.089Z" fill="#5C848D" stroke="#8195B4" stroke-width="0.0288741"/>
<path id="path2357" d="M356.171 232.315C356.672 232.502 357.21 232.431 357.732 232.441C360.047 232.442 362.362 232.439 364.678 232.443C364.882 232.441 365.088 232.403 365.277 232.319L365.321 232.301C365.313 232.335 365.295 232.404 365.287 232.438C365.921 232.443 366.556 232.433 367.191 232.44C367.403 232.451 367.64 232.447 367.816 232.583C368.001 232.73 368.156 232.909 368.319 233.077C368.318 232.997 368.429 233.624 368.43 233.544C368.623 234.555 368.441 234.884 368.549 235.903C368.633 236.476 368.61 237.058 368.649 237.634C368.682 238.06 368.652 238.499 368.793 238.91C365.884 238.906 362.975 238.907 360.067 238.903C358.711 238.893 357.355 238.92 355.999 238.885C355.706 238.63 355.384 238.298 355.417 237.878C355.423 236.56 355.42 235.242 355.419 233.925C355.424 233.701 355.391 233.469 355.46 233.253C355.634 232.882 355.952 232.573 356.348 232.448C356.289 232.402 356.23 232.357 356.171 232.315Z" fill="#7D8D9F" stroke="#7D7D9F" stroke-width="0.0288741"/>
<path id="path2395" d="M340.899 240.016C341.626 239.866 342.376 239.887 343.113 239.93C343.664 239.953 344.184 240.15 344.708 240.304C345.221 240.472 345.723 240.689 346.17 240.996C347.117 241.576 347.942 242.373 348.5 243.338C349.098 244.232 349.359 245.303 349.496 246.357C349.57 247.05 349.51 247.751 349.382 248.434C349.374 248.525 349.329 248.642 349.429 248.702C349.719 248.755 350.017 248.721 350.311 248.727C354.861 248.727 359.41 248.726 363.96 248.727C364.057 248.714 364.188 248.735 364.243 248.63C364.244 248.426 364.19 248.227 364.167 248.027C364.07 247.238 364.175 246.443 364.337 245.672C364.459 245.236 364.628 244.815 364.79 244.393C364.971 243.912 365.285 243.499 365.559 243.069C365.914 242.557 366.356 242.108 366.84 241.716C367.171 241.37 367.603 241.16 367.997 240.899C368.633 240.504 369.358 240.295 370.074 240.098C370.63 239.921 371.219 239.904 371.798 239.9C372.319 239.901 372.846 239.907 373.356 240.028C373.982 240.189 374.612 240.359 375.199 240.636C375.649 240.817 376.034 241.116 376.445 241.365C376.566 241.448 376.728 241.532 376.718 241.704C376.746 242.22 376.71 242.739 376.721 243.256C376.488 243.077 376.308 242.842 376.089 242.651C376.14 242.534 376.192 242.418 376.245 242.302C376.04 242.117 375.834 241.929 375.592 241.792C375.451 241.689 375.317 241.874 375.196 241.934C374.92 241.814 374.646 241.687 374.399 241.516C374.401 241.395 374.421 241.272 374.388 241.154C374.099 241.029 373.793 240.941 373.489 240.863C373.422 240.957 373.356 241.052 373.291 241.146C373.002 241.114 372.71 241.109 372.424 241.06C372.252 241.023 372.359 240.798 372.338 240.678C372 240.645 371.659 240.646 371.322 240.678C371.327 240.806 371.335 240.935 371.342 241.064C371.001 241.084 370.661 241.127 370.322 241.166C370.272 241.066 370.224 240.968 370.176 240.87C369.874 240.96 369.568 241.041 369.276 241.16C369.228 241.281 369.279 241.421 369.229 241.54C368.998 241.722 368.717 241.822 368.457 241.955C368.368 241.886 368.281 241.817 368.195 241.749C367.902 241.911 367.636 242.118 367.402 242.356C367.467 242.454 367.535 242.554 367.601 242.655C367.354 242.861 367.144 243.104 366.945 243.355C366.843 243.296 366.74 243.239 366.64 243.182C366.413 243.409 366.216 243.675 366.094 243.973C366.132 244.086 366.248 244.152 366.329 244.237C366.229 244.519 366.106 244.792 365.984 245.064C365.861 245.059 365.738 245.053 365.618 245.048C365.459 245.343 365.409 245.677 365.374 246.006C365.469 246.045 365.566 246.084 365.664 246.123C365.647 246.438 365.611 246.751 365.604 247.067C365.491 247.08 365.379 247.094 365.268 247.108C365.255 247.431 365.285 247.753 365.312 248.074C365.449 248.093 365.586 248.112 365.725 248.133C365.768 248.431 365.835 248.727 365.941 249.011C365.84 249.081 365.739 249.151 365.639 249.221C365.711 249.462 365.805 249.697 365.921 249.922C360.957 249.936 355.993 249.924 351.028 249.928C350.008 249.918 348.987 249.949 347.968 249.913C348.089 249.695 348.188 249.465 348.264 249.227C348.149 249.169 348.036 249.111 347.924 249.052C348.036 248.751 348.13 248.442 348.177 248.123C348.303 248.109 348.431 248.095 348.559 248.082C348.623 247.76 348.648 247.43 348.638 247.101C348.526 247.083 348.416 247.067 348.306 247.051C348.283 246.868 348.264 246.686 348.252 246.503C348.354 246.46 348.458 246.418 348.562 246.376C348.541 246.047 348.497 245.719 348.427 245.397C348.302 245.4 348.177 245.402 348.054 245.405C347.916 245.108 347.803 244.802 347.697 244.494C347.799 244.442 347.902 244.39 348.004 244.339C347.861 244.026 347.718 243.708 347.494 243.443C347.391 243.484 347.289 243.527 347.189 243.569C346.963 243.344 346.774 243.088 346.581 242.837C346.638 242.748 346.698 242.659 346.758 242.571C346.548 242.287 346.258 242.078 345.962 241.892C345.874 241.967 345.788 242.043 345.701 242.12C345.416 241.953 345.137 241.776 344.839 241.635C344.881 241.519 344.925 241.403 344.97 241.288C344.671 241.12 344.349 240.999 344.024 240.895C343.967 241.001 343.913 241.107 343.86 241.215C343.523 241.166 343.195 241.071 342.858 241.023C342.851 240.889 342.844 240.755 342.837 240.622C342.497 240.595 342.156 240.586 341.816 240.617C341.798 240.726 341.782 240.835 341.766 240.945C341.434 241.007 341.099 241.041 340.762 241.03C340.725 240.931 340.689 240.833 340.654 240.736C340.298 240.752 339.95 240.852 339.645 241.038C339.681 241.145 339.718 241.253 339.756 241.361C339.402 241.431 339.129 241.693 338.78 241.772C338.719 241.674 338.66 241.576 338.601 241.479C338.314 241.682 337.992 241.844 337.749 242.105C337.803 242.203 337.871 242.299 337.895 242.411C337.823 242.514 337.728 242.6 337.637 242.685C337.583 242.437 337.527 242.191 337.503 241.939C337.453 241.663 337.725 241.486 337.913 241.34C338.311 241.098 338.672 240.79 339.107 240.614C339.684 240.36 340.287 240.168 340.899 240.016Z" fill="#A3E2C5" stroke="#77CED4" stroke-width="0.0288741"/>
<path id="path2397" d="M371.323 240.678C371.66 240.646 372 240.645 372.338 240.678C372.359 240.798 372.252 241.022 372.425 241.06C372.711 241.109 373.003 241.113 373.292 241.146C373.357 241.052 373.423 240.957 373.489 240.863C373.794 240.94 374.099 241.028 374.389 241.153C374.421 241.271 374.401 241.395 374.4 241.516C374.647 241.687 374.921 241.814 375.196 241.934C375.317 241.873 375.451 241.689 375.593 241.792C375.834 241.929 376.041 242.117 376.245 242.302C376.192 242.418 376.14 242.534 376.089 242.65C376.309 242.842 376.489 243.077 376.722 243.256L376.765 243.289C376.882 243.244 377.039 243.084 377.143 243.239C377.308 243.487 377.543 243.713 377.603 244.014C377.517 244.079 377.305 244.118 377.371 244.266C377.495 244.523 377.579 244.799 377.724 245.046C377.841 245.041 377.961 245.008 378.081 245.033C378.261 245.308 378.264 245.666 378.303 245.985C378.213 246.006 378.125 246.03 378.038 246.052C378.035 246.391 378.073 246.728 378.105 247.066C378.205 247.064 378.304 247.063 378.407 247.065C378.411 247.409 378.413 247.755 378.369 248.098C378.25 248.095 378.131 248.09 378.015 248.086C377.911 248.394 377.822 248.707 377.731 249.02C377.841 249.068 377.967 249.098 378.058 249.186C378.03 249.526 377.764 249.787 377.669 250.11C377.545 250.074 377.423 250.038 377.302 250.001C377.15 250.286 376.931 250.526 376.767 250.803C376.855 250.873 376.941 250.949 377.016 251.036C376.831 251.273 376.652 251.523 376.421 251.717C376.275 251.818 376.153 251.644 376.041 251.574C375.814 251.777 375.565 251.949 375.31 252.112C375.247 252.24 375.403 252.36 375.434 252.482C375.109 252.628 374.815 252.849 374.471 252.946C374.443 252.855 374.414 252.765 374.389 252.676C374.057 252.709 373.752 252.851 373.434 252.938C373.434 253.066 373.437 253.195 373.441 253.324C373.099 253.383 372.756 253.463 372.409 253.445C372.392 253.35 372.382 253.256 372.363 253.164C372.294 253.069 372.186 253.139 372.1 253.153C371.873 253.195 371.634 253.185 371.417 253.102C371.364 253.201 371.341 253.309 371.344 253.422C370.984 253.499 370.624 253.362 370.264 253.341C370.267 253.206 370.273 253.071 370.275 252.937C369.958 252.867 369.66 252.725 369.338 252.674C369.275 252.753 369.268 252.917 369.163 252.939C368.856 252.812 368.573 252.634 368.272 252.496C368.324 252.376 368.382 252.258 368.435 252.139C368.168 251.968 367.901 251.795 367.668 251.579C367.568 251.653 367.469 251.727 367.368 251.799C367.176 251.64 367.012 251.452 366.856 251.258C366.787 251.176 366.675 251.075 366.741 250.96C366.802 250.903 366.87 250.855 366.937 250.806C366.764 250.541 366.575 250.286 366.395 250.027C366.297 250.049 366.201 250.077 366.106 250.1C366.016 250.077 365.959 249.998 365.922 249.922C365.806 249.697 365.712 249.461 365.64 249.22C365.74 249.15 365.84 249.081 365.942 249.011C365.836 248.727 365.769 248.431 365.726 248.132C365.587 248.112 365.45 248.093 365.313 248.074C365.286 247.752 365.256 247.43 365.269 247.108C365.38 247.093 365.492 247.08 365.605 247.067C365.612 246.751 365.648 246.437 365.664 246.122C365.567 246.083 365.47 246.045 365.375 246.006C365.409 245.676 365.46 245.342 365.619 245.047C365.739 245.052 365.862 245.059 365.985 245.064C366.107 244.791 366.23 244.518 366.329 244.236C366.249 244.151 366.132 244.086 366.095 243.972C366.217 243.674 366.414 243.409 366.641 243.182C366.741 243.239 366.843 243.296 366.946 243.355C367.145 243.103 367.355 242.86 367.602 242.654C367.535 242.554 367.468 242.454 367.403 242.355C367.637 242.118 367.903 241.911 368.196 241.749C368.282 241.817 368.369 241.886 368.458 241.955C368.717 241.822 368.999 241.721 369.23 241.54C369.28 241.42 369.229 241.28 369.276 241.159C369.569 241.041 369.874 240.96 370.177 240.87C370.225 240.968 370.273 241.066 370.323 241.165C370.662 241.127 371.001 241.083 371.343 241.064C371.336 240.935 371.328 240.806 371.323 240.678ZM370.941 244.206C370.436 244.305 370.582 244.246 370.18 244.576C369.861 244.877 369.521 245.18 369.339 245.588C368.941 246.401 368.931 247.389 369.312 248.211C369.422 248.528 369.682 248.748 369.889 249.001C370.032 249.18 370.219 249.318 370.42 249.43C370.656 249.561 370.888 249.72 371.162 249.763C371.547 249.827 371.932 249.974 372.328 249.905C372.901 249.82 372.842 249.91 373.31 249.55C373.781 249.231 374.09 248.732 374.329 248.226C374.638 247.44 374.603 246.506 374.154 245.78C374.025 245.469 373.804 245.207 373.555 244.984C372.869 244.331 371.869 244.058 370.941 244.206Z" fill="#2F2F2F" stroke="#2F2F2F" stroke-width="0.0288741"/>
<path id="path2413" d="M371.32 244.093C372.248 243.945 373.248 244.219 373.934 244.872C374.183 245.094 374.403 245.357 374.533 245.668C374.982 246.393 375.017 247.328 374.708 248.113C374.469 248.619 374.16 249.118 373.689 249.438C373.221 249.797 372.633 249.944 372.06 250.029C371.664 250.099 371.279 249.952 370.894 249.887C370.62 249.844 370.388 249.686 370.151 249.554C369.951 249.443 369.764 249.304 369.621 249.126C369.414 248.872 369.154 248.653 369.044 248.335C368.662 247.514 368.673 246.526 369.071 245.712C369.252 245.305 369.593 245.002 369.911 244.7C370.314 244.37 370.815 244.193 371.32 244.093Z" fill="#B4B3C1" stroke="#B4B3C1" stroke-width="0.0288741"/>
<path id="path2415" d="M341.477 244.081C341.99 244.048 342.53 244.011 343.016 244.214C343.29 244.321 343.578 244.42 343.802 244.618C344.009 244.791 344.238 244.941 344.411 245.151C344.645 245.432 344.798 245.77 344.934 246.108C345.155 246.594 345.142 247.15 345.06 247.667C344.887 248.059 344.789 248.494 344.507 248.83C344.25 249.233 343.852 249.52 343.43 249.729C343.151 249.861 342.88 250.035 342.564 250.051C342.124 250.081 341.674 250.111 341.242 250.008C340.541 249.799 339.867 249.41 339.445 248.797C339.211 248.493 339.105 248.12 338.974 247.765C338.791 247.223 338.852 246.625 339.071 246.103C339.217 245.591 339.52 245.127 339.951 244.812C340.357 244.396 340.922 244.2 341.477 244.081Z" fill="#B4B3C1" stroke="#B4B3C1" stroke-width="0.0288741"/>
<path id="path2423" d="M366.693 209.04L369.233 209.048L371.556 238.9L368.733 238.91L366.693 209.04Z" fill="#4F676F" stroke="#415C77" stroke-width="0.0288741"/>
<path id="path2341" d="M330.678 190.29C330.922 190.359 331.088 190.569 331.319 190.666C331.754 190.927 332.209 191.155 332.626 191.445C332.807 191.561 333.134 191.629 333.083 191.91C333.075 194.974 333.075 201.101 333.075 201.101L333.081 201.545C333.081 201.545 333.088 207.759 333.078 210.866C332.543 211.163 332.042 211.521 331.58 211.922C331.326 212.141 330.976 212.165 330.656 212.169C330.646 211.607 330.657 211.046 330.651 210.484C330.551 210.468 330.453 210.452 330.355 210.44C330.453 210.432 330.551 210.419 330.65 210.409C330.662 205.979 330.651 201.55 330.655 197.12C330.653 196.631 330.655 196.143 330.624 195.655C330.639 194.853 330.728 194.05 330.676 193.249C330.628 192.626 330.666 191.999 330.655 191.375C330.66 191.013 330.634 190.65 330.678 190.29Z" fill="#7D8D9F" stroke="#7D8D9F" stroke-width="0.0288741"/>
<path id="path2421" d="M330.651 210.484C330.551 210.468 330.453 210.452 330.355 210.44C330.203 210.437 330.052 210.433 329.901 210.436C329.887 210.481 329.857 210.571 329.842 210.617C326.813 210.479 319.762 210.17 314.504 209.917C314.389 209.919 314.275 209.933 314.161 209.941C314.201 210.047 314.22 210.172 314.302 210.259C314.579 210.572 314.973 210.75 315.366 210.87C315.895 211.033 316.417 211.077 316.967 211.13C321.24 211.481 325.412 212.002 329.586 212.114C329.943 212.117 330.297 212.178 330.656 212.169C330.646 211.607 330.657 211.046 330.651 210.484Z" fill="#090909"/>
<g id="path2573">
<path d="M335.036 210.236C334.825 210.347 334.571 210.401 334.401 210.572C334.368 211.326 334.396 212.085 334.388 212.841C334.374 213.035 334.437 213.273 334.275 213.422C334.13 213.593 333.933 213.75 333.692 213.704C333.459 213.72 333.287 213.542 333.19 213.351C333.079 213.196 333.121 212.997 333.114 212.821C333.123 209.714 333.117 206.607 333.117 203.5C333.117 203.342 333.155 203.188 333.21 203.042C333.275 202.842 333.486 202.717 333.693 202.738C334.031 202.682 334.429 202.958 334.388 203.324C334.392 204.962 334.38 206.6 334.393 208.237C334.379 208.375 334.566 208.294 334.645 208.3C334.96 208.255 335.281 208.254 335.597 208.207" fill="#2F2F2F"/>
<path d="M335.036 210.236C334.825 210.347 334.571 210.401 334.401 210.572C334.368 211.326 334.396 212.085 334.388 212.841C334.374 213.035 334.437 213.273 334.275 213.422C334.13 213.593 333.933 213.75 333.692 213.704C333.459 213.72 333.287 213.542 333.19 213.351C333.079 213.196 333.121 212.997 333.114 212.821C333.123 209.714 333.117 206.607 333.117 203.5C333.117 203.342 333.155 203.188 333.21 203.042C333.275 202.842 333.486 202.717 333.693 202.738C334.031 202.682 334.429 202.958 334.388 203.324C334.392 204.962 334.38 206.6 334.393 208.237C334.379 208.375 334.566 208.294 334.645 208.3C334.96 208.255 335.281 208.254 335.597 208.207" stroke="#2F2F2F" stroke-width="0.0288741"/>
</g>
<g id="path2575">
<path d="M335.059 208.103C335.692 208.066 336.328 208.097 336.963 208.087C338.769 208.09 340.574 208.081 342.379 208.091C342.378 208.483 342.387 208.876 342.378 209.268L342.335 209.298C340.91 209.317 339.483 209.284 338.058 209.314C338.06 215.841 338.058 222.37 338.059 228.897C338.058 229.126 338.064 229.356 338.049 229.585C337.93 229.593 337.812 229.61 337.695 229.627C337.66 230.321 337.69 231.016 337.681 231.71C337.693 232.196 337.649 232.685 337.707 233.169C337.821 233.193 337.935 233.219 338.05 233.241C338.066 235.118 338.06 236.996 338.053 238.874C337.704 238.872 337.007 238.885 337.007 238.885L337.361 242.912C337.361 242.912 337.547 242.763 337.637 242.685C337.728 242.6 337.823 242.514 337.895 242.411C337.871 242.299 337.803 242.203 337.749 242.105C337.992 241.844 338.314 241.682 338.602 241.479C338.66 241.576 338.72 241.674 338.78 241.773C339.13 241.693 339.402 241.431 339.756 241.361C339.718 241.253 339.681 241.145 339.645 241.038C339.95 240.852 340.298 240.753 340.655 240.737C340.689 240.834 340.725 240.932 340.762 241.03C341.099 241.041 341.434 241.007 341.766 240.945C341.782 240.835 341.798 240.726 341.816 240.617C342.156 240.587 342.497 240.595 342.837 240.622C342.844 240.755 342.851 240.889 342.858 241.023C343.195 241.071 343.523 241.167 343.86 241.215C343.913 241.107 343.968 241.001 344.024 240.895C344.349 240.999 344.671 241.12 344.97 241.288C344.925 241.404 344.881 241.519 344.84 241.635C345.138 241.776 345.417 241.953 345.701 242.12C345.788 242.043 345.874 241.967 345.962 241.892C346.258 242.078 346.548 242.288 346.758 242.571C346.698 242.659 346.638 242.748 346.581 242.837C346.774 243.088 346.963 243.345 347.189 243.57C347.289 243.527 347.391 243.485 347.494 243.443C347.718 243.709 347.862 244.026 348.005 244.339C347.902 244.39 347.799 244.442 347.697 244.494C347.804 244.803 347.917 245.109 348.054 245.405C348.178 245.402 348.302 245.399 348.427 245.397C348.497 245.719 348.541 246.047 348.562 246.377C348.458 246.418 348.354 246.46 348.252 246.503C348.264 246.686 348.283 246.869 348.306 247.051C348.416 247.067 348.526 247.083 348.638 247.101C348.648 247.43 348.623 247.76 348.559 248.082C348.431 248.096 348.303 248.109 348.177 248.124C348.13 248.443 348.036 248.751 347.924 249.053C348.036 249.111 348.15 249.169 348.264 249.227C348.188 249.465 348.089 249.695 347.968 249.913C347.92 249.997 347.86 250.073 347.804 250.151C347.704 250.111 347.604 250.071 347.505 250.033C347.345 250.271 347.186 250.509 347.009 250.735C346.873 250.884 347.106 250.997 347.193 251.096C346.945 251.359 346.753 251.693 346.426 251.868C346.334 251.79 346.265 251.692 346.189 251.601C345.97 251.829 345.713 252.012 345.438 252.166C345.375 252.304 345.551 252.427 345.497 252.566C345.278 252.716 345.032 252.817 344.806 252.955C344.728 253.012 344.63 252.998 344.541 253.003C344.516 252.912 344.491 252.823 344.468 252.734C344.127 252.771 343.835 252.972 343.502 253.039C343.489 253.148 343.543 253.273 343.481 253.37C343.153 253.471 342.805 253.468 342.465 253.474C342.429 253.382 342.394 253.291 342.358 253.202C342.029 253.238 341.701 253.198 341.375 253.162C341.358 253.26 341.344 253.358 341.33 253.458C340.973 253.482 340.619 253.41 340.272 253.339C340.279 253.206 340.288 253.075 340.293 252.944C339.978 252.848 339.662 252.753 339.362 252.618C339.302 252.724 339.239 252.829 339.176 252.933C338.887 252.795 338.601 252.651 338.33 252.482C338.226 252.354 338.366 252.221 338.432 252.114C338.235 251.961 338.011 251.845 337.831 251.67C337.767 251.615 337.71 251.541 337.622 251.531C337.517 251.57 337.438 251.663 337.33 251.689C337.056 251.483 336.879 251.177 336.655 250.922C336.749 250.841 336.842 250.76 336.941 250.684C336.794 250.459 336.591 250.269 336.491 250.017C336.458 249.954 336.443 249.871 336.364 249.857C336.256 249.884 336.158 249.938 336.059 249.985C335.886 249.666 335.697 249.336 335.654 248.97C335.768 248.928 335.883 248.887 335.997 248.842C335.847 248.551 335.834 248.217 335.79 247.899C335.653 247.901 335.517 247.902 335.382 247.897C335.361 247.538 335.349 247.178 335.37 246.818C335.475 246.818 335.582 246.821 335.689 246.823C335.721 246.482 335.747 246.142 335.808 245.804C335.705 245.798 335.602 245.791 335.502 245.786C335.484 245.431 335.678 245.115 335.739 244.773C335.873 244.768 336.004 244.799 336.13 244.849C336.246 244.54 336.444 244.267 336.54 243.951C336.141 243.956 335.742 243.955 335.344 243.952C335.248 243.53 335.034 242.218 335.034 242.218C335.034 242.218 335.063 241.756 335.065 241.525V221.774C335.061 217.216 335.074 212.659 335.058 208.102M341.477 244.08C340.921 244.199 340.356 244.396 339.95 244.811C339.519 245.126 339.217 245.59 339.07 246.102C338.851 246.624 338.79 247.222 338.973 247.764C339.104 248.119 339.21 248.492 339.445 248.797C339.866 249.41 340.54 249.799 341.241 250.008C341.673 250.111 342.124 250.08 342.563 250.051C342.88 250.035 343.151 249.86 343.429 249.729C343.851 249.519 344.249 249.232 344.506 248.829C344.788 248.493 344.886 248.059 345.059 247.666C345.141 247.15 345.155 246.593 344.933 246.107C344.797 245.769 344.644 245.432 344.41 245.151C344.237 244.94 344.008 244.79 343.801 244.618C343.577 244.419 343.289 244.32 343.015 244.213C342.529 244.011 341.989 244.047 341.477 244.08Z" fill="#2F2F2F"/>
<path d="M335.059 208.103C335.692 208.066 336.328 208.097 336.963 208.087C338.769 208.09 340.574 208.081 342.379 208.091C342.378 208.483 342.387 208.876 342.378 209.268L342.335 209.298C340.91 209.317 339.483 209.284 338.058 209.314C338.06 215.841 338.058 222.37 338.059 228.897C338.058 229.126 338.064 229.356 338.049 229.585C337.93 229.593 337.812 229.61 337.695 229.627C337.66 230.321 337.69 231.016 337.681 231.71C337.693 232.196 337.649 232.685 337.707 233.169C337.821 233.193 337.935 233.219 338.05 233.241C338.066 235.118 338.06 236.996 338.053 238.874C337.704 238.872 337.007 238.885 337.007 238.885L337.361 242.912C337.361 242.912 337.547 242.763 337.637 242.685C337.728 242.6 337.823 242.514 337.895 242.411C337.871 242.299 337.803 242.203 337.749 242.105C337.992 241.844 338.314 241.682 338.602 241.479C338.66 241.576 338.72 241.674 338.78 241.773C339.13 241.693 339.402 241.431 339.756 241.361C339.718 241.253 339.681 241.145 339.645 241.038C339.95 240.852 340.298 240.753 340.655 240.737C340.689 240.834 340.725 240.932 340.762 241.03C341.099 241.041 341.434 241.007 341.766 240.945C341.782 240.835 341.798 240.726 341.816 240.617C342.156 240.587 342.497 240.595 342.837 240.622C342.844 240.755 342.851 240.889 342.858 241.023C343.195 241.071 343.523 241.167 343.86 241.215C343.913 241.107 343.968 241.001 344.024 240.895C344.349 240.999 344.671 241.12 344.97 241.288C344.925 241.404 344.881 241.519 344.84 241.635C345.138 241.776 345.417 241.953 345.701 242.12C345.788 242.043 345.874 241.967 345.962 241.892C346.258 242.078 346.548 242.288 346.758 242.571C346.698 242.659 346.638 242.748 346.581 242.837C346.774 243.088 346.963 243.345 347.189 243.57C347.289 243.527 347.391 243.485 347.494 243.443C347.718 243.709 347.862 244.026 348.005 244.339C347.902 244.39 347.799 244.442 347.697 244.494C347.804 244.803 347.917 245.109 348.054 245.405C348.178 245.402 348.302 245.399 348.427 245.397C348.497 245.719 348.541 246.047 348.562 246.377C348.458 246.418 348.354 246.46 348.252 246.503C348.264 246.686 348.283 246.869 348.306 247.051C348.416 247.067 348.526 247.083 348.638 247.101C348.648 247.43 348.623 247.76 348.559 248.082C348.431 248.096 348.303 248.109 348.177 248.124C348.13 248.443 348.036 248.751 347.924 249.053C348.036 249.111 348.15 249.169 348.264 249.227C348.188 249.465 348.089 249.695 347.968 249.913C347.92 249.997 347.86 250.073 347.804 250.151C347.704 250.111 347.604 250.071 347.505 250.033C347.345 250.271 347.186 250.509 347.009 250.735C346.873 250.884 347.106 250.997 347.193 251.096C346.945 251.359 346.753 251.693 346.426 251.868C346.334 251.79 346.265 251.692 346.189 251.601C345.97 251.829 345.713 252.012 345.438 252.166C345.375 252.304 345.551 252.427 345.497 252.566C345.278 252.716 345.032 252.817 344.806 252.955C344.728 253.012 344.63 252.998 344.541 253.003C344.516 252.912 344.491 252.823 344.468 252.734C344.127 252.771 343.835 252.972 343.502 253.039C343.489 253.148 343.543 253.273 343.481 253.37C343.153 253.471 342.805 253.468 342.465 253.474C342.429 253.382 342.394 253.291 342.358 253.202C342.029 253.238 341.701 253.198 341.375 253.162C341.358 253.26 341.344 253.358 341.33 253.458C340.973 253.482 340.619 253.41 340.272 253.339C340.279 253.206 340.288 253.075 340.293 252.944C339.978 252.848 339.662 252.753 339.362 252.618C339.302 252.724 339.239 252.829 339.176 252.933C338.887 252.795 338.601 252.651 338.33 252.482C338.226 252.354 338.366 252.221 338.432 252.114C338.235 251.961 338.011 251.845 337.831 251.67C337.767 251.615 337.71 251.541 337.622 251.531C337.517 251.57 337.438 251.663 337.33 251.689C337.056 251.483 336.879 251.177 336.655 250.922C336.749 250.841 336.842 250.76 336.941 250.684C336.794 250.459 336.591 250.269 336.491 250.017C336.458 249.954 336.443 249.871 336.364 249.857C336.256 249.884 336.158 249.938 336.059 249.985C335.886 249.666 335.697 249.336 335.654 248.97C335.768 248.928 335.883 248.887 335.997 248.842C335.847 248.551 335.834 248.217 335.79 247.899C335.653 247.901 335.517 247.902 335.382 247.897C335.361 247.538 335.349 247.178 335.37 246.818C335.475 246.818 335.582 246.821 335.689 246.823C335.721 246.482 335.747 246.142 335.808 245.804C335.705 245.798 335.602 245.791 335.502 245.786C335.484 245.431 335.678 245.115 335.739 244.773C335.873 244.768 336.004 244.799 336.13 244.849C336.246 244.54 336.444 244.267 336.54 243.951C336.141 243.956 335.742 243.955 335.344 243.952C335.248 243.53 335.034 242.218 335.034 242.218C335.034 242.218 335.063 241.756 335.065 241.525V221.774C335.061 217.216 335.074 212.659 335.058 208.102M341.477 244.08C340.921 244.199 340.356 244.396 339.95 244.811C339.519 245.126 339.217 245.59 339.07 246.102C338.851 246.624 338.79 247.222 338.973 247.764C339.104 248.119 339.21 248.492 339.445 248.797C339.866 249.41 340.54 249.799 341.241 250.008C341.673 250.111 342.124 250.08 342.563 250.051C342.88 250.035 343.151 249.86 343.429 249.729C343.851 249.519 344.249 249.232 344.506 248.829C344.788 248.493 344.886 248.059 345.059 247.666C345.141 247.15 345.155 246.593 344.933 246.107C344.797 245.769 344.644 245.432 344.41 245.151C344.237 244.94 344.008 244.79 343.801 244.618C343.577 244.419 343.289 244.32 343.015 244.213C342.529 244.011 341.989 244.047 341.477 244.08Z" stroke="#2F2F2F" stroke-width="0.0288741"/>
</g>
<path id="rect1661" d="M352.383 223.579L348.001 221.785C347.759 221.686 347.482 221.802 347.383 222.044L347.342 222.144C347.243 222.386 347.359 222.662 347.601 222.761L351.983 224.556C352.225 224.655 352.502 224.539 352.601 224.297L352.641 224.197C352.741 223.955 352.625 223.679 352.383 223.579Z" fill="black"/>
<path id="rect1663" d="M349.375 237.702L347.618 236.467C347.507 236.388 347.362 236.402 347.295 236.497L347.285 236.511C347.218 236.606 347.254 236.747 347.366 236.825L349.122 238.061C349.234 238.139 349.379 238.126 349.446 238.03L349.455 238.017C349.522 237.922 349.486 237.781 349.375 237.702Z" fill="black"/>
</g>
<g id="Rectangle">
<path id="rect2642" d="M245.351 124.963H136.864V154.409H245.351V124.963Z" fill="#4F676F"/>
</g>
<path id="path2692" d="M313.366 84.1281V84.9034V91.1027V91.8781H314.915V91.1027V84.9034V84.1281H313.366ZM313.366 96.5265V97.3019V103.501V104.276H314.915V103.501V97.3019V96.5265H313.366ZM313.366 108.925V109.7V115.9V116.675H314.915V115.9V109.7V108.925H313.366ZM313.366 121.323V122.099V128.298V129.073H314.915V128.298V122.099V121.323H313.366ZM313.366 133.722V134.497V140.696V141.472H314.915V140.696V134.497V133.722H313.366ZM313.366 146.12V146.896V153.095V153.87H314.915V153.095V146.896V146.12H313.366ZM313.366 158.519V159.294V165.493V166.269H314.915V165.493V159.294V158.519H313.366ZM313.366 170.917V171.693V177.892V178.667H314.915V177.892V171.693V170.917H313.366ZM313.366 183.316V184.091V190.29V191.066H314.915V190.29V184.091V183.316H313.366Z" fill="#4A4D54"/>
<path id="rect2694" d="M309.802 90.2902V91.5284V98.9679H318.479V90.2902H309.802ZM312.28 92.7687H316.001V96.4894H312.28V92.7687Z" fill="#4A4D54"/>
<path id="rect2696" d="M309.802 139.884V141.122V148.562H318.479V139.884H309.802ZM312.28 142.362H316.001V146.083H312.28V142.362Z" fill="#4A4D54"/>
<path id="path2700" d="M183.739 189.515V191.066H184.515H190.157H190.931V189.515H190.157H184.515H183.739ZM195.581 189.515V191.066H196.356H202.556H203.329V189.515H202.556H196.356H195.581ZM207.979 189.515V191.066H208.755H214.954H215.728V189.515H214.954H208.755H207.979ZM220.378 189.515V191.066H221.153H227.353H228.126V189.515H227.353H221.153H220.378ZM232.776 189.515V191.066H233.552H239.751H240.524V189.515H239.751H233.552H232.776ZM245.175 189.515V191.066H245.95H252.149H252.923V189.515H252.149H245.95H245.175ZM257.573 189.515V191.066H258.349H264.548H265.321V189.515H264.548H258.349H257.573ZM269.972 189.515V191.066H270.747H276.946H277.72V189.515H276.946H270.747H269.972ZM282.37 189.515V191.066H283.146H289.345H290.118V189.515H289.345H283.146H282.37ZM294.769 189.515V191.066H295.544H301.743H302.517V189.515H301.743H295.544H294.769ZM307.167 189.515V191.066H307.942H314.142H314.915V189.515H314.142H307.942H307.167Z" fill="#4A4D54"/>
<path id="rect2702" d="M189.099 185.95V187.191V194.63H197.776V185.95H189.099ZM191.577 188.431H195.298V192.15H191.577V188.431Z" fill="#4A4D54"/>
<path id="rect2704" d="M238.692 185.95V187.191V194.63H247.37V185.95H238.692ZM241.171 188.431H244.892V192.15H241.171V188.431Z" fill="#4A4D54"/>
<path id="path5933" d="M314.05 208.902C322.677 208.902 329.671 201.909 329.671 193.281C329.671 184.654 322.677 177.661 314.05 177.661C305.423 177.661 298.429 184.654 298.429 193.281C298.429 201.909 305.423 208.902 314.05 208.902Z" fill="#4F5D6F" stroke="#4A4D54" stroke-width="2" stroke-linecap="square"/>
</g>
</g>
<defs>
<linearGradient id="paint0_linear_4_1732" x1="199.431" y1="203.754" x2="291.123" y2="119.772" gradientUnits="userSpaceOnUse">
<stop stop-color="white" stop-opacity="0.261719"/>
<stop offset="1" stop-color="white" stop-opacity="0"/>
</linearGradient>
<clipPath id="clip0_4_1732">
<rect width="439.174" height="253.489" fill="white"/>
</clipPath>
</defs>
</svg>
